<svg width="178" height="192" viewBox="0 0 178 192" fill="none" xmlns="http://www.w3.org/2000/svg">
<g filter="url(#filter0_d_1602_500)">
<mask id="mask0_1602_500" style="mask-type:luminance" maskUnits="userSpaceOnUse" x="5" y="5" width="168" height="181">
<path d="M138.288 5.67456H39.712C20.7957 5.67456 5.46094 22.1953 5.46094 42.5746V148.775C5.46094 169.154 20.7957 185.675 39.712 185.675H138.288C157.205 185.675 172.539 169.154 172.539 148.775V42.5746C172.539 22.1953 157.205 5.67456 138.288 5.67456Z" fill="white"/>
</mask>
<g mask="url(#mask0_1602_500)">
<path d="M138.285 5.67651H39.7091C20.7927 5.67651 5.45801 22.1972 5.45801 42.5765V148.777C5.45801 169.156 20.7927 185.677 39.7091 185.677H138.285C157.202 185.677 172.536 169.156 172.536 148.777V42.5765C172.536 22.1972 157.202 5.67651 138.285 5.67651Z" fill="#494848"/>
<path d="M172.537 6.16951C172.537 6.1985 172.537 6.2275 172.537 6.25651V25.6765C172.52 26.3723 172.52 27.0618 172.52 27.7434C165.77 29.9813 159.023 32.2251 152.273 34.457C103.656 50.529 55.0388 66.595 6.41899 82.6639C6.10711 82.7687 5.79244 82.8554 5.47778 82.9512L5.46324 25.6765L5.45801 5.67651H172.537V6.16951Z" fill="#88D7F6"/>
<path d="M89.2141 36.6662C89.1138 37.1509 88.7435 37.2645 88.3954 36.9205L80.8156 29.3512C80.4815 28.9922 79.9552 28.7768 79.3648 28.9623L76.7333 29.782C76.2711 29.9286 76.0037 30.4313 76.1485 30.904L80.8852 46.6887C81.0272 47.1614 81.4282 47.3888 81.9657 47.2183L83.603 46.7067C84.0681 46.5661 84.3131 46.1622 84.1767 45.7044C84.1098 45.486 80.7376 34.2249 80.7543 34.2189C80.7738 34.2129 90.2583 43.8046 90.2583 43.8046C90.6008 44.1517 91.1383 43.9871 91.2385 43.5025C91.2385 43.5025 93.8895 30.156 93.909 30.15C93.9285 30.1441 97.2589 41.2646 97.3564 41.5907C97.4928 42.0484 97.9412 42.2339 98.4062 42.0903L100.291 41.5009C100.754 41.3573 101.06 41.0043 100.876 40.379L96.1562 24.6601C96.0142 24.1874 95.5213 23.9211 95.0563 24.0647L92.5306 24.8545C91.8873 25.055 91.6005 25.5097 91.4947 25.9944L89.2141 36.6662ZM126.737 14.1798C126.272 14.3264 125.991 14.7542 126.127 15.209C126.194 15.4274 129.168 25.3153 129.168 25.3153C129.31 25.788 129.079 25.9795 128.656 25.7401L115.574 18.3384C115.15 18.0991 114.596 17.9704 113.961 18.1679L112.093 18.7513C111.505 18.9338 111.344 19.3317 111.441 19.6548C111.539 19.9779 116.194 35.4964 116.295 35.8195C116.389 36.1426 116.782 36.355 117.247 36.2114L119.118 35.628C119.581 35.4814 119.828 35.1254 119.698 34.6916C119.631 34.4732 116.512 24.0378 116.512 24.0378C116.37 23.5651 116.598 23.3766 117.022 23.6189L130.669 31.3587C131.098 31.5921 131.58 31.7417 132.292 31.5173L133.696 31.0805C134.161 30.9339 134.423 30.4313 134.281 29.9586L129.564 14.2396C129.422 13.7669 128.926 13.4977 128.461 13.6443L126.737 14.1798ZM68.0369 40.7919C67.5524 41.0791 66.9732 41.2855 66.9732 41.2855C66.5165 41.4501 65.7618 41.7044 65.2996 41.848L61.3621 43.0776C60.8971 43.2212 60.4014 42.955 60.2594 42.4793L59.2987 39.278C59.1567 38.8053 59.4212 38.2997 59.8835 38.1561L63.8209 36.9265C64.286 36.7829 65.049 36.5615 65.5168 36.4388C65.5168 36.4388 66.1099 36.2772 66.6668 36.2384C67.2266 36.1995 67.6888 36.2384 68.0564 36.367C68.4267 36.4927 68.7219 36.6871 68.9419 36.9474C69.1619 37.2047 69.3234 37.5099 69.432 37.8659C69.5378 38.2219 69.5712 38.569 69.5322 38.907C69.4905 39.2451 69.3512 39.5772 69.1145 39.8913C68.8806 40.2085 68.5186 40.5077 68.0369 40.7919ZM70.596 43.5025C70.2145 43.2003 70.234 42.7246 70.6377 42.4553C70.6377 42.4553 72.2417 41.3603 72.8543 40.3252C73.4697 39.287 73.556 38.0334 73.1189 36.5764C72.8348 35.6191 72.4283 34.8681 71.9075 34.3206C71.3868 33.7701 70.7603 33.3812 70.0279 33.1658C69.2983 32.9444 68.4824 32.8696 67.5774 32.9474C66.6724 33.0252 65.5112 33.3273 65.5112 33.3273C65.0406 33.45 64.2776 33.6684 63.8154 33.815L55.3222 36.4657C54.86 36.6063 54.5954 37.112 54.7374 37.5877L59.4797 53.3874C59.6245 53.8601 60.0923 54.0456 60.5546 53.902L62.5651 53.2737C63.0301 53.1271 63.3197 52.7082 63.1749 52.2355L61.2953 45.9497C61.2953 45.9497 61.3008 45.9438 61.2981 45.9378C61.2981 45.9348 65.1047 44.7381 65.1047 44.7381C65.5669 44.5945 66.2603 44.7231 66.6474 45.0283L72.3057 49.4681C72.8237 49.857 73.2302 49.9438 73.6953 49.8002L76.324 48.9804C76.7862 48.8338 76.725 48.3671 76.4966 48.1876C76.2683 48.0051 70.596 43.5025 70.596 43.5025ZM101.895 22.9069C101.943 23.0595 106.548 38.4074 106.64 38.7186C106.771 39.1524 107.242 39.3349 107.707 39.1883L109.751 38.551C110.216 38.4044 110.503 37.9856 110.361 37.5129L105.618 21.7102C105.476 21.2375 105.059 20.9443 104.596 21.0879L102.472 21.752C102.007 21.8956 101.714 22.3055 101.895 22.9069ZM42.822 54.0276C42.3569 54.1712 42.0339 53.887 42.1007 53.3993L43.1171 46.0395C43.184 45.5488 43.5014 45.4531 43.8216 45.8211L48.6279 51.3649C48.9482 51.7359 48.8312 52.1577 48.369 52.3013L42.822 54.0276ZM44.0305 40.8278C43.6963 40.4688 43.0447 40.2952 42.5797 40.4388L41.6357 40.732C41.1734 40.8757 40.7363 41.3962 40.6611 41.8839L37.9628 60.1578C37.882 60.6455 38.1995 60.8759 38.6617 60.7322L40.391 60.1907C41.0732 59.9783 41.2932 59.5625 41.36 59.1197C41.4296 58.6709 41.5884 57.7016 41.6162 57.5041C41.6524 57.2378 41.9392 56.9925 42.4015 56.8489L50.4574 54.3418C50.9225 54.1952 51.2455 54.1922 51.4683 54.4285C51.6131 54.5841 52.2508 55.2154 52.5766 55.5654C52.9051 55.9184 53.3507 56.1488 54.0134 55.9394L56.5252 55.1585C56.9874 55.0149 57.0821 54.5901 56.8176 54.3088C56.5502 54.0276 44.0305 40.8278 44.0305 40.8278Z" fill="#494848"/>
<path d="M14.0434 58.8645C16.5997 67.3822 25.271 65.1473 26.9836 64.6118C32.6559 62.8436 34.5801 60.534 34.6609 60.4352C34.9532 60.1211 35.2623 59.5736 35.0312 58.8017L33.2658 52.9258C33.1042 52.3813 32.539 52.0761 32.0071 52.2407L24.8868 54.4636C24.3521 54.6311 24.1349 55.1816 24.2992 55.7201L24.4802 56.3305C24.6445 56.872 25.1262 57.2041 25.6581 57.0395L29.7766 55.7531C30.1748 55.6304 30.5981 55.8578 30.7206 56.2647C30.7206 56.2647 31.4892 58.8406 31.5365 59.0051C30.8236 59.5975 27.4486 61.8593 24.2547 62.0628C19.6154 62.359 18.1897 58.8286 17.8639 57.7396C17.5882 56.8271 16.4827 52.1689 21.651 50.0477C25.8335 48.3304 29.1918 49.219 29.2252 49.2249C29.8128 49.3356 30.2778 48.9826 30.3948 48.3483C30.3948 48.3454 30.5981 47.0768 30.5981 47.0768C30.6844 46.5533 30.4672 46.1045 29.8128 45.901C29.7682 45.8891 26.2596 45.1651 21.587 46.6221C11.6152 49.7335 13.7649 57.9401 14.0434 58.8645Z" fill="#494848"/>
<path d="M137.803 27.8284L138.246 27.6878C138.536 27.601 138.697 27.4814 138.608 27.1792C138.53 26.9129 138.274 26.9099 138.034 26.9847L137.594 27.1224L137.803 27.8284ZM137.129 26.9399L138.004 26.6676C138.53 26.506 138.853 26.6407 138.987 27.0775C139.098 27.4544 138.948 27.7955 138.591 27.9062L139.549 28.7349L139.154 28.8606L138.207 28.0259L137.892 28.1276L138.204 29.1538L137.831 29.2705L137.129 26.9399ZM138.739 29.5667C139.636 29.2854 140.09 28.337 139.805 27.3856C139.519 26.4312 138.622 25.9017 137.725 26.1829C136.818 26.4671 136.361 27.4155 136.648 28.3699C136.935 29.3213 137.834 29.8509 138.739 29.5667ZM137.631 25.8897C138.706 25.5517 139.847 26.171 140.179 27.2689C140.507 28.3639 139.9 29.5278 138.823 29.8658C137.748 30.2009 136.603 29.5816 136.275 28.4866C135.946 27.3916 136.556 26.2248 137.631 25.8897Z" fill="#494848"/>
<path d="M109.554 143.123C109.095 142.627 108.421 142.459 107.8 142.654C105.394 143.396 102.86 143.803 100.234 143.803C85.2555 143.803 73.1116 130.857 73.1116 114.887C73.1116 98.9165 85.2555 85.971 100.234 85.971C115.213 85.971 127.351 98.9165 127.351 114.887C127.351 117.819 126.939 120.646 126.173 123.315C125.975 123.994 126.131 124.742 126.605 125.25L131.199 130.214C132.076 131.159 133.586 130.863 134.062 129.624C135.805 125.08 136.771 120.104 136.771 114.887C136.771 93.3667 120.414 75.9275 100.234 75.9275C80.051 75.9275 63.6884 93.3667 63.6884 114.887C63.6884 136.404 80.051 153.843 100.234 153.843C104.929 153.843 109.423 152.898 113.553 151.168C114.728 150.681 115.026 149.032 114.132 148.063L109.554 143.123ZM137.183 147.794L114.937 123.775C114.205 122.983 113.01 122.983 112.278 123.775L108.432 127.925C107.7 128.718 107.7 130.004 108.432 130.797L130.679 154.815C131.414 155.608 132.603 155.608 133.338 154.815L137.183 150.666C137.919 149.867 137.919 148.583 137.183 147.794ZM49.0607 80.1699H43.3021C42.2021 80.1699 41.311 81.0794 41.311 82.1983V149.376C41.311 150.495 42.2021 151.405 43.3021 151.405H49.0607C50.1578 151.405 51.0517 150.495 51.0517 149.376V82.1983C51.0517 81.0794 50.1578 80.1699 49.0607 80.1699Z" fill="#88D7F6"/>
</g>
</g>
<defs>
<filter id="filter0_d_1602_500" x="0.0609379" y="0.274561" width="177.879" height="190.8" filterUnits="userSpaceOnUse" color-interpolation-filters="sRGB">
<feFlood flood-opacity="0" result="BackgroundImageFix"/>
<feColorMatrix in="SourceAlpha" type="matrix" values="0 0 0 0 0 0 0 0 0 0 0 0 0 0 0 0 0 0 127 0" result="hardAlpha"/>
<feOffset/>
<feGaussianBlur stdDeviation="2.7"/>
<feComposite in2="hardAlpha" operator="out"/>
<feColorMatrix type="matrix" values="0 0 0 0 0 0 0 0 0 0 0 0 0 0 0 0 0 0 0.15 0"/>
<feBlend mode="normal" in2="BackgroundImageFix" result="effect1_dropShadow_1602_500"/>
<feBlend mode="normal" in="SourceGraphic" in2="effect1_dropShadow_1602_500" result="shape"/>
</filter>
</defs>
</svg>