<?xml version="1.0" encoding="UTF-8"?>
<svg version="1.1" viewBox="0 0 1000 1000" xmlns="http://www.w3.org/2000/svg" xmlns:cc="http://creativecommons.org/ns#" xmlns:dc="http://purl.org/dc/elements/1.1/" xmlns:rdf="http://www.w3.org/1999/02/22-rdf-syntax-ns#">
 <title>Calendar</title>
 <path d="m220 40v70h-65c-68.855 0-120 61.992-120 131.43v617.14c0 69.436 51.145 131.43 120 131.43h690c68.855 0 120-61.992 120-131.43v-617.14c0-69.436-51.145-131.43-120-131.43h-65v-70h-80v70h-400v-70h-80zm-65 150h65v50h80v-50h400v50h80v-50h65c19.785 0 40 19.561 40 51.428v67.477h-770v-67.477c0-31.867 20.215-51.428 40-51.428zm-40 198.9h770v469.67c0 31.867-20.215 51.428-40 51.428h-690c-19.785 0-40-19.561-40-51.428v-469.67zm45 71.096v80h80v-80h-80zm150 0v80h80v-80h-80zm150 0v80h80v-80h-80zm150 0v80h80v-80h-80zm150 0v80h80v-80h-80zm-600 140v80h80v-80h-80zm150 0v80h80v-80h-80zm150 0v80h80v-80h-80zm150 0v80h80v-80h-80zm150 0v80h80v-80h-80zm-600 140v80h80v-80h-80zm150 0v80h80v-80h-80zm150 0v80h80v-80h-80zm150 0v80h80v-80h-80zm150 0v80h80v-80h-80z" style="-inkscape-stroke:none"/>
 <metadata>
  <rdf:RDF>
   <cc:Work rdf:about="">
    <dc:date>2024-07-06</dc:date>
    <dc:creator>
     <cc:Agent>
      <dc:title>Roman Drechsel</dc:title>
     </cc:Agent>
    </dc:creator>
    <dc:rights>
     <cc:Agent>
      <dc:title>Roman Drechsel</dc:title>
     </cc:Agent>
    </dc:rights>
    <dc:publisher>
     <cc:Agent>
      <dc:title>Roman Drechsel</dc:title>
     </cc:Agent>
    </dc:publisher>
    <dc:title>Calendar</dc:title>
    <cc:license rdf:resource="http://creativecommons.org/licenses/by-nc-sa/4.0/"/>
   </cc:Work>
   <cc:License rdf:about="http://creativecommons.org/licenses/by-nc-sa/4.0/">
    <cc:permits rdf:resource="http://creativecommons.org/ns#Reproduction"/>
    <cc:permits rdf:resource="http://creativecommons.org/ns#Distribution"/>
    <cc:requires rdf:resource="http://creativecommons.org/ns#Notice"/>
    <cc:requires rdf:resource="http://creativecommons.org/ns#Attribution"/>
    <cc:prohibits rdf:resource="http://creativecommons.org/ns#CommercialUse"/>
    <cc:permits rdf:resource="http://creativecommons.org/ns#DerivativeWorks"/>
    <cc:requires rdf:resource="http://creativecommons.org/ns#ShareAlike"/>
   </cc:License>
  </rdf:RDF>
 </metadata>
</svg>
