<?xml version="1.0" encoding="UTF-8"?>
<svg version="1.1" viewBox="0 0 1000 1000" xmlns="http://www.w3.org/2000/svg" xmlns:cc="http://creativecommons.org/ns#" xmlns:dc="http://purl.org/dc/elements/1.1/" xmlns:rdf="http://www.w3.org/1999/02/22-rdf-syntax-ns#">
  <title>Done</title>
  <path d="m1e3 500a500 500 0 0 1-500 500 500 500 0 0 1-500-500 500 500 0 0 1 500-500 500 500 0 0 1 500 500z" stroke-linecap="square" stroke-linejoin="round" stroke-width="100" style="paint-order:fill markers stroke"/>
  <path transform="rotate(30 -26.918 .043331)" d="m730.34-229.14c-17.075 8.7791-27.163 27.867-23.645 47.815l89.718 508.83-346.22-1.2e-4c-24.93 0-45 20.069-45 44.999l-4e-5 9.9999c0 24.93 20.069 45 44.999 45l410 5e-5c16.532 0 30.929-8.8251 38.751-22.041 6.2663-9.3125 9.0591-20.981 6.947-32.96l-1.2282-6.9633c-0.09935-0.64464-0.213-1.2844-0.33923-1.9196l-99.149-562.31c-4.329-24.551-27.579-40.832-52.13-36.503l-9.8492 1.7375c-4.6034 0.8117-8.9156 2.2887-12.856 4.3147z" fill="#fff" stroke-linecap="square" stroke-linejoin="round" stroke-width="95.346" style="paint-order:fill markers stroke"/>
  <metadata>
    <rdf:RDF>
      <cc:Work rdf:about="">
        <dc:creator>
          <cc:Agent>
            <dc:title>Roman Drechsel</dc:title>
          </cc:Agent>
        </dc:creator>
        <dc:rights>
          <cc:Agent>
            <dc:title>Roman Drechsel</dc:title>
          </cc:Agent>
        </dc:rights>
        <dc:publisher>
          <cc:Agent>
            <dc:title>Roman Drechsel</dc:title>
          </cc:Agent>
        </dc:publisher>
        <dc:source>https://roman-drechsel.de</dc:source>
        <cc:license rdf:resource="http://creativecommons.org/licenses/by-nc-sa/4.0/"/>
        <dc:date>2025-06-30</dc:date>
        <dc:title>Done</dc:title>
      </cc:Work>
      <cc:License rdf:about="http://creativecommons.org/licenses/by-nc-sa/4.0/">
        <cc:permits rdf:resource="http://creativecommons.org/ns#Reproduction"/>
        <cc:permits rdf:resource="http://creativecommons.org/ns#Distribution"/>
        <cc:requires rdf:resource="http://creativecommons.org/ns#Notice"/>
        <cc:requires rdf:resource="http://creativecommons.org/ns#Attribution"/>
        <cc:prohibits rdf:resource="http://creativecommons.org/ns#CommercialUse"/>
        <cc:permits rdf:resource="http://creativecommons.org/ns#DerivativeWorks"/>
        <cc:requires rdf:resource="http://creativecommons.org/ns#ShareAlike"/>
      </cc:License>
    </rdf:RDF>
  </metadata>
</svg>
