<?xml version="1.0" encoding="UTF-8"?>
<svg version="1.1" viewBox="0 0 1000 1000" xmlns="http://www.w3.org/2000/svg" xmlns:cc="http://creativecommons.org/ns#" xmlns:dc="http://purl.org/dc/elements/1.1/" xmlns:rdf="http://www.w3.org/1999/02/22-rdf-syntax-ns#">
  <path transform="matrix(.85556 0 0 .85556 68.322 67.164)" d="m950.1-14.405a75.974 70.514 45 0 0-50.99 19.523l0.40635 0.40635c-1.7226 1.2022-3.3954 2.5828-4.9858 4.1731l-450.61 450.61c-7.6375 7.6375-10.605 17.068-9.9282 25.504-1.0564 0.83639-2.0879 1.7181-3.0613 2.6915-10.042 10.042-12.777 24.882-7.8554 36.343l-12.261 12.264c-9.988 9.988-10.824 26.252-1.8103 35.266l30.289 30.291c9.0136 9.0136 25.278 8.1777 35.266-1.8103l12.261-12.261c11.461 4.9234 26.305 2.1848 36.348-7.8576 0.97327-0.97327 1.853-2.0051 2.6892-3.0613 8.4366 0.67673 17.867-2.2884 25.504-9.9259l450.61-450.61c1.5904-1.5903 2.9687-3.2654 4.1708-4.9881l0.4087 0.40864a75.974 70.514 45 0 0-3.8626-103.58 75.974 70.514 45 0 0-52.591-23.383zm-845.54 23.564c-52.792 0-96.753 43.96-96.753 96.753v800c0 52.792 43.96 96.753 96.753 96.753h800c52.792 0 96.753-43.96 96.753-96.753v-700.32l-93.506 93.506v606.81c0 2.6074-0.63882 3.2462-3.2462 3.2462h-800c-2.6074 0-3.2462-0.63883-3.2462-3.2462v-800c0-2.6074 0.63883-3.2462 3.2462-3.2462h585.16l93.506-93.506h-678.66zm806.91 25.746 65.299 65.297-442.34 442.34-65.299-65.297 442.34-442.34zm0.95881 55.565c-2.3363 0.095533-4.7112 1.0883-6.5747 2.9518l-345.33 345.33c-3.7269 3.7269-3.9637 9.4916-0.52963 12.926 3.4341 3.4341 9.201 3.1995 12.928-0.52734l345.33-345.33c3.7269-3.7269 3.9637-9.4916 0.52963-12.926-1.717-1.717-4.0169-2.5177-6.3532-2.4221z" stroke-linecap="square" style="-inkscape-stroke:none;paint-order:markers fill stroke"/>
  <metadata>
    <rdf:RDF>
      <cc:Work rdf:about="">
        <dc:date>2024-04-11</dc:date>
        <dc:creator>
          <cc:Agent>
            <dc:title>Roman Drechsel</dc:title>
          </cc:Agent>
        </dc:creator>
        <dc:rights>
          <cc:Agent>
            <dc:title>Roman Drechsel</dc:title>
          </cc:Agent>
        </dc:rights>
        <dc:publisher>
          <cc:Agent>
            <dc:title>Roman Drechsel</dc:title>
          </cc:Agent>
        </dc:publisher>
        <cc:license rdf:resource="http://creativecommons.org/licenses/by-nc-sa/4.0/"/>
      </cc:Work>
      <cc:License rdf:about="http://creativecommons.org/licenses/by-nc-sa/4.0/">
        <cc:permits rdf:resource="http://creativecommons.org/ns#Reproduction"/>
        <cc:permits rdf:resource="http://creativecommons.org/ns#Distribution"/>
        <cc:requires rdf:resource="http://creativecommons.org/ns#Notice"/>
        <cc:requires rdf:resource="http://creativecommons.org/ns#Attribution"/>
        <cc:prohibits rdf:resource="http://creativecommons.org/ns#CommercialUse"/>
        <cc:permits rdf:resource="http://creativecommons.org/ns#DerivativeWorks"/>
        <cc:requires rdf:resource="http://creativecommons.org/ns#ShareAlike"/>
      </cc:License>
    </rdf:RDF>
  </metadata>
</svg>
