<?xml version="1.0" encoding="UTF-8"?>
<svg version="1.1" viewBox="0 0 1000 1000" xmlns="http://www.w3.org/2000/svg" xmlns:cc="http://creativecommons.org/ns#" xmlns:dc="http://purl.org/dc/elements/1.1/" xmlns:rdf="http://www.w3.org/1999/02/22-rdf-syntax-ns#">
  <path transform="matrix(.62497 0 0 .55928 89.55 193.7)" d="m656.75 99.628c-337.49 2e-6 -644.15 150.79-767.16 396.9l-24.054 48.126-2.4095 1.2048 0.90317 1.809-0.90629 1.816 2.4189 1.2083 24.051 48.122c123.01 246.12 429.66 396.9 767.16 396.9 337.49-1e-5 644.15-150.79 767.16-396.9l24.051-48.122 2.4157-1.2083-0.9063-1.8124 0.9063-1.8125-2.4157-1.2083-24.051-48.122c-123.01-246.12-429.67-396.9-767.16-396.9zm0 118.4c300.59 1e-5 563.99 139.4 660.3 329.64-96.307 190.25-359.7 329.65-660.3 329.65-300.6-1e-5 -563.99-139.4-660.3-329.65 96.308-190.24 359.71-329.64 660.3-329.64zm0 97.202c-114.31 0-208.01 104.7-208.01 232.44 0 127.74 93.698 232.44 208.01 232.44 114.31 0 208.01-104.7 208.01-232.44 0-127.74-93.698-232.44-208.01-232.44zm0 107.28c62.427 0 112.01 55.401 112.01 125.16 0 69.759-49.578 125.16-112.01 125.16-62.427 0-112.01-55.401-112.01-125.16 0-69.759 49.578-125.16 112.01-125.16z" stroke-linecap="square" style="-inkscape-stroke:none;paint-order:markers fill stroke"/>
  <metadata>
    <rdf:RDF>
      <cc:Work rdf:about="">
        <dc:date>2024-04-11</dc:date>
        <dc:creator>
          <cc:Agent>
            <dc:title>Roman Drechsel</dc:title>
          </cc:Agent>
        </dc:creator>
        <dc:rights>
          <cc:Agent>
            <dc:title>Roman Drechsel</dc:title>
          </cc:Agent>
        </dc:rights>
        <dc:publisher>
          <cc:Agent>
            <dc:title>Roman Drechsel</dc:title>
          </cc:Agent>
        </dc:publisher>
        <cc:license rdf:resource="http://creativecommons.org/licenses/by-nc-sa/4.0/"/>
      </cc:Work>
      <cc:License rdf:about="http://creativecommons.org/licenses/by-nc-sa/4.0/">
        <cc:permits rdf:resource="http://creativecommons.org/ns#Reproduction"/>
        <cc:permits rdf:resource="http://creativecommons.org/ns#Distribution"/>
        <cc:requires rdf:resource="http://creativecommons.org/ns#Notice"/>
        <cc:requires rdf:resource="http://creativecommons.org/ns#Attribution"/>
        <cc:prohibits rdf:resource="http://creativecommons.org/ns#CommercialUse"/>
        <cc:permits rdf:resource="http://creativecommons.org/ns#DerivativeWorks"/>
        <cc:requires rdf:resource="http://creativecommons.org/ns#ShareAlike"/>
      </cc:License>
    </rdf:RDF>
  </metadata>
</svg>
