<?xml version="1.0" encoding="UTF-8"?>
<svg version="1.1" viewBox="0 0 1000 1000" xmlns="http://www.w3.org/2000/svg" xmlns:cc="http://creativecommons.org/ns#" xmlns:dc="http://purl.org/dc/elements/1.1/" xmlns:rdf="http://www.w3.org/1999/02/22-rdf-syntax-ns#">
  <path transform="matrix(.62497 0 0 .55928 89.55 193.7)" d="m136.3-135.05-90.514 101.14 1131.4 1264.3 90.514-101.14-1131.4-1264.3zm520.46 234.68c-72.85 1e-6 -144.08 7.4283-212.52 20.922l93.936 104.97c38.675-4.8035 78.254-7.4873 118.58-7.4873 300.59 1e-5 563.99 139.39 660.3 329.64-50.608 99.965-147.6 185.63-271.64 244.66l83.254 93.032c130.51-68.296 234.96-165.94 295.25-286.55l24.051-48.122 2.4157-1.2083-0.9063-1.8124 0.9063-1.8125-2.4157-1.2083-24.051-48.122c-123.01-246.12-429.67-396.9-767.16-396.9zm-471.91 110.35c-130.51 68.296-234.96 165.94-295.25 286.55l-24.054 48.126-2.4095 1.2048 0.90317 1.809-0.90629 1.816 2.4189 1.2083 24.051 48.122c123.01 246.12 429.66 396.9 767.16 396.9 72.851-1e-5 144.08-7.4279 212.52-20.922l-93.939-104.97c-38.675 4.8035-78.254 7.4908-118.58 7.4908-300.59-1e-5 -563.99-139.4-660.29-329.65 50.609-99.962 147.6-185.62 271.64-244.66l-83.254-93.032zm471.91 105.25c-12.003 0-23.759 1.2185-35.224 3.4328l240.16 268.37c1.9816-12.811 3.072-25.947 3.072-39.361 0-127.74-93.698-232.44-208.01-232.44zm-204.94 193.08c-1.9811 12.809-3.0752 25.946-3.0752 39.357 0 127.74 93.698 232.44 208.01 232.44 12.002 0 23.758-1.2226 35.22-3.4363l-240.16-268.36z" stroke-linecap="square" style="-inkscape-stroke:none;paint-order:markers fill stroke"/>
  <metadata>
    <rdf:RDF>
      <cc:Work rdf:about="">
        <dc:date>2024-04-11</dc:date>
        <dc:creator>
          <cc:Agent>
            <dc:title>Roman Drechsel</dc:title>
          </cc:Agent>
        </dc:creator>
        <dc:rights>
          <cc:Agent>
            <dc:title>Roman Drechsel</dc:title>
          </cc:Agent>
        </dc:rights>
        <dc:publisher>
          <cc:Agent>
            <dc:title>Roman Drechsel</dc:title>
          </cc:Agent>
        </dc:publisher>
        <cc:license rdf:resource="http://creativecommons.org/licenses/by-nc-sa/4.0/"/>
      </cc:Work>
      <cc:License rdf:about="http://creativecommons.org/licenses/by-nc-sa/4.0/">
        <cc:permits rdf:resource="http://creativecommons.org/ns#Reproduction"/>
        <cc:permits rdf:resource="http://creativecommons.org/ns#Distribution"/>
        <cc:requires rdf:resource="http://creativecommons.org/ns#Notice"/>
        <cc:requires rdf:resource="http://creativecommons.org/ns#Attribution"/>
        <cc:prohibits rdf:resource="http://creativecommons.org/ns#CommercialUse"/>
        <cc:permits rdf:resource="http://creativecommons.org/ns#DerivativeWorks"/>
        <cc:requires rdf:resource="http://creativecommons.org/ns#ShareAlike"/>
      </cc:License>
    </rdf:RDF>
  </metadata>
</svg>
