<?xml version="1.0" encoding="UTF-8"?>
<svg version="1.1" viewBox="0 0 1000 1000" xmlns="http://www.w3.org/2000/svg" xmlns:cc="http://creativecommons.org/ns#" xmlns:dc="http://purl.org/dc/elements/1.1/" xmlns:rdf="http://www.w3.org/1999/02/22-rdf-syntax-ns#">
  <title>Info icon</title>
  <path d="m500 0c-132.59-5.8394e-7 -259.8 52.692-353.55 146.45-93.756 93.756-146.45 220.96-146.45 353.55 0 132.59 52.692 259.8 146.45 353.55 93.756 93.756 220.96 146.45 353.55 146.45s259.8-52.692 353.55-146.45c93.756-93.756 146.45-220.96 146.45-353.55s-52.692-259.8-146.45-353.55c-93.756-93.756-220.96-146.45-353.55-146.45zm0 91.746c108.29 0 212.1 43 288.68 119.57 76.575 76.575 119.57 180.39 119.57 288.68s-43 212.1-119.57 288.68c-76.575 76.575-180.39 119.57-288.68 119.57s-212.1-43-288.68-119.57c-76.575-76.575-119.57-180.39-119.57-288.68s43-212.1 119.57-288.68c76.575-76.575 180.39-119.57 288.68-119.57zm-3.5898 138.75c-8.431 0-16.29 1.0273-23.582 3.0781-7.0638 1.8229-13.332 4.7832-18.801 8.8848-5.2409 3.8737-9.4544 9.0007-12.645 15.381-2.9622 6.3802-4.4434 14.014-4.4434 22.9 0 8.6588 1.4811 16.18 4.4434 22.561 3.1901 6.3802 7.4036 11.619 12.645 15.721 5.4688 4.1016 11.737 7.1777 18.801 9.2285 7.2917 2.0508 15.151 3.0762 23.582 3.0762 7.9752 0 15.609-1.0254 22.9-3.0762 7.2917-2.0508 13.674-5.127 19.143-9.2285 5.4688-4.1016 9.7982-9.3405 12.988-15.721 3.418-6.3802 5.125-13.902 5.125-22.561 0-8.8867-1.707-16.52-5.125-22.9-3.1901-6.3802-7.5195-11.507-12.988-15.381-5.4687-4.1016-11.851-7.0619-19.143-8.8848-7.2917-2.0508-14.925-3.0781-22.9-3.0781zm-107.66 163.72v37.256h8.2012c5.013 0 10.37 0.45379 16.066 1.3652 5.9245 0.91146 11.393 2.9642 16.406 6.1543 5.013 2.9622 9.1126 7.2917 12.303 12.988 3.418 5.4687 5.1289 12.874 5.1289 22.217v212.6c0 10.026-1.7109 18.001-5.1289 23.926-3.1901 5.9245-7.2897 10.484-12.303 13.674-4.7852 3.1901-10.142 5.3548-16.066 6.4942-5.6966 0.91145-11.165 1.3672-16.406 1.3672h-8.2012v37.256h222.51v-37.256h-8.2012c-5.013 0-10.482-0.45573-16.406-1.3672-5.9245-1.1393-11.393-3.304-16.406-6.4942-4.7852-3.1901-8.8887-7.7494-12.307-13.674-3.1901-5.9245-4.7852-13.9-4.7852-23.926v-292.58h-164.4z"/>
  <metadata>
    <rdf:RDF>
      <cc:Work rdf:about="">
        <dc:creator>
          <cc:Agent>
            <dc:title>Roman Drechsel</dc:title>
          </cc:Agent>
        </dc:creator>
        <dc:rights>
          <cc:Agent>
            <dc:title>Roman Drechsel</dc:title>
          </cc:Agent>
        </dc:rights>
        <dc:publisher>
          <cc:Agent>
            <dc:title>Roman Drechsel</dc:title>
          </cc:Agent>
        </dc:publisher>
        <dc:source>https://roman-drechsel.de</dc:source>
        <dc:date>2024-10-13</dc:date>
        <cc:license rdf:resource="http://creativecommons.org/licenses/by-nc-sa/4.0/"/>
        <dc:title>Info icon</dc:title>
      </cc:Work>
      <cc:License rdf:about="http://creativecommons.org/licenses/by-nc-sa/4.0/">
        <cc:permits rdf:resource="http://creativecommons.org/ns#Reproduction"/>
        <cc:permits rdf:resource="http://creativecommons.org/ns#Distribution"/>
        <cc:requires rdf:resource="http://creativecommons.org/ns#Notice"/>
        <cc:requires rdf:resource="http://creativecommons.org/ns#Attribution"/>
        <cc:prohibits rdf:resource="http://creativecommons.org/ns#CommercialUse"/>
        <cc:permits rdf:resource="http://creativecommons.org/ns#DerivativeWorks"/>
        <cc:requires rdf:resource="http://creativecommons.org/ns#ShareAlike"/>
      </cc:License>
    </rdf:RDF>
  </metadata>
</svg>
