<?xml version="1.0" encoding="UTF-8" standalone="no"?>
<svg version="1.1" viewBox="0 0 1000 1000" id="svg1" sodipodi:docname="language.svg" inkscape:version="1.4 (e7c3feb100, 2024-10-09)" xmlns:inkscape="http://www.inkscape.org/namespaces/inkscape" xmlns:sodipodi="http://sodipodi.sourceforge.net/DTD/sodipodi-0.dtd" xmlns="http://www.w3.org/2000/svg" xmlns:svg="http://www.w3.org/2000/svg" xmlns:rdf="http://www.w3.org/1999/02/22-rdf-syntax-ns#" xmlns:cc="http://creativecommons.org/ns#" xmlns:dc="http://purl.org/dc/elements/1.1/">
  <defs id="defs1" />
  <sodipodi:namedview id="namedview1" pagecolor="#ffffff" bordercolor="#000000" borderopacity="0.25" inkscape:showpageshadow="2" inkscape:pageopacity="0.0" inkscape:pagecheckerboard="0" inkscape:deskcolor="#d1d1d1" inkscape:current-layer="svg1" />
  <path d="m500 0c-132.6 0-259.79 52.688-353.55 146.45-56.242 56.242-97.571 124.56-121.75 198.82-0.079817 0.24394-0.16274 0.48639-0.24219 0.73047-2.0201 6.2366-3.9088 12.513-5.6836 18.83-0.37549 1.3301-0.74469 2.6618-1.1094 3.9961-1.532 5.6317-2.9752 11.286-4.3105 16.975-0.4848 2.0561-0.93728 4.1224-1.3965 6.1875-1.1549 5.2167-2.2635 10.442-3.252 15.701-0.48902 2.5909-0.91266 5.2009-1.3613 7.8047-0.84054 4.8985-1.6701 9.7966-2.3652 14.727-0.42579 3.0068-0.75523 6.0402-1.127 9.0625-0.56962 4.6534-1.1643 9.2996-1.6035 13.977-0.33353 3.5309-0.53183 7.0948-0.79102 10.645-0.30474 4.2081-0.67658 8.4054-0.875 12.629-0.37035 7.7733-0.57359 15.584-0.58203 23.436v0.03516a32.877 32.877 0 0 0 0 0.05273c0.012392 7.7242 0.2114 15.412 0.57422 23.061 0.24286 5.2494 0.67702 10.47 1.084 15.695 0.18943 2.3987 0.31171 4.8131 0.53516 7.2031 0.53483 5.7865 1.2442 11.539 1.9785 17.289 0.22206 1.7241 0.40483 3.4587 0.64453 5.1777 0.84887 6.1372 1.8538 12.238 2.9277 18.326 0.21417 1.2056 0.40997 2.4163 0.63281 3.6191 1.2131 6.5934 2.5745 13.147 4.0488 19.674 0.10271 0.45171 0.2027 0.90418 0.30664 1.3555 16.78 73.338 49.905 142.21 97.268 201.27v2.2734h1.7715c10.851 13.373 22.388 26.265 34.676 38.553 93.759 93.759 220.96 146.45 353.55 146.45s259.79-52.688 353.55-146.45c12.288-12.288 23.825-25.18 34.676-38.553h1.7715v-2.2734c52.79-65.836 87.903-143.85 102.38-226.65 0.27567-1.5653 0.5574-3.1276 0.81836-4.6973 0.84342-5.11 1.6057-10.234 2.291-15.377 0.34459-2.5646 0.65178-5.1378 0.95703-7.7129 0.53904-4.59 1.0565-9.1806 1.4688-13.793 0.30846-3.4103 0.52466-6.8409 0.76367-10.268 0.27022-3.9364 0.5845-7.8647 0.76172-11.814 0.34166-7.4243 0.54558-14.877 0.55664-22.367a32.877 32.877 0 0 0 0-0.01172 32.877 32.877 0 0 0 0-0.03711v-0.00391c-0.00115-7.7753-0.21889-15.509-0.57617-23.213-0.11239-2.4184-0.31364-4.8228-0.46094-7.2363-0.32546-5.3438-0.69357-10.676-1.1875-15.98-0.2549-2.7327-0.56768-5.4529-0.86719-8.1777-0.55315-5.0395-1.1698-10.061-1.873-15.061-0.38153-2.7103-0.78147-5.4142-1.207-8.1152-0.8021-5.093-1.6964-10.156-2.6523-15.203-0.47937-2.5314-0.93701-5.0661-1.4551-7.5879-1.148-5.5855-2.4218-11.128-3.7559-16.65-0.45885-1.9017-0.86281-3.8175-1.3438-5.7129-1.8643-7.3382-3.8732-14.624-6.0605-21.84-0.54765-1.8099-1.182-3.5895-1.75-5.3926-1.6692-5.2889-3.3808-10.56-5.2207-15.777-1.1208-3.1846-2.3348-6.3316-3.5195-9.4922-1.4034-3.7357-2.8164-7.4648-4.3066-11.16-1.4539-3.6132-2.966-7.1991-4.5039-10.777-1.3241-3.0741-2.6803-6.1301-4.0645-9.1738-1.784-3.9318-3.5927-7.849-5.4785-11.734-1.1325-2.3285-2.3186-4.6264-3.4863-6.9356-11.056-21.908-23.731-43.015-37.963-63.164-0.55119-0.7798-1.0909-1.5672-1.6465-2.3438-3.4763-4.8624-7.0504-9.6576-10.707-14.402-0.62182-0.80662-1.2502-1.6073-1.877-2.4102-3.7907-4.857-7.6484-9.6647-11.627-14.391-0.05766-0.0685-0.11809-0.13465-0.17578-0.20312-9.1104-10.81-18.609-21.341-28.682-31.414-3.7175-3.7175-7.5756-7.258-11.396-10.846-0.75358-0.70829-1.488-1.4349-2.2461-2.1387-3.9652-3.6772-8.0034-7.2522-12.074-10.789-1.5643-1.3607-3.131-2.7168-4.7129-4.0586-3.8453-3.2579-7.723-6.4644-11.656-9.5976-1.8877-1.5056-3.806-2.9739-5.7168-4.4531-3.8717-2.9934-7.7465-5.9782-11.697-8.8516-1.8809-1.3697-3.8152-2.6732-5.7168-4.0176-7.5166-5.3076-15.162-10.399-22.939-15.271-2.2154-1.3893-4.389-2.8335-6.6289-4.1895-3.4264-2.0725-6.9163-4.0237-10.389-6.0117-3.1018-1.7771-6.1922-3.568-9.3379-5.2812-3.4397-1.8725-6.9175-3.6629-10.398-5.4531-3.2167-1.6547-6.4435-3.291-9.7031-4.8789-3.5652-1.7368-7.1475-3.429-10.752-5.0801-3.1858-1.4588-6.3988-2.8689-9.623-4.2637-3.77-1.6318-7.5407-3.2545-11.35-4.793-2.9382-1.1857-5.9167-2.2973-8.8848-3.4297-4.1679-1.5918-8.3251-3.2054-12.535-4.6855-1.7171-0.6029-3.4708-1.1337-5.1973-1.7188-51.268-17.396-105.44-26.639-160.6-26.639zm0 65.746c32.085 0 63.768 3.6751 94.592 10.557 21.311 39.534 39.572 80.912 54.617 123.7h-260.94c15.996-45.387 35.586-89.19 58.617-130.87 17.537-2.161 35.254-3.3887 53.109-3.3887zm-136.83 22.678c-17.088 36.081-31.809 73.387-44.26 111.58h-132.35c48.099-50.147 108.3-88.975 176.61-111.58zm319.33 17.635c3.9173 1.811 7.7789 3.7107 11.627 5.6309 1.3657 0.68272 2.7331 1.3614 4.0918 2.0586 3.6749 1.8825 7.3228 3.8064 10.932 5.7871 1.6575 0.91109 3.2934 1.8619 4.9395 2.7949 5.8095 3.2885 11.522 6.7116 17.15 10.25 2.1522 1.3544 4.3196 2.6811 6.4492 4.0742 2.8259 1.8468 5.6037 3.7531 8.3809 5.6621 2.4103 1.6582 4.8047 3.3423 7.1836 5.0508 2.5734 1.8468 5.149 3.6916 7.6777 5.5918 3.7164 2.7945 7.3832 5.6632 11.016 8.582 2.6785 2.1511 5.31 4.353 7.9336 6.5644 2.8093 2.3692 5.6035 4.7582 8.3574 7.2031 2.085 1.8502 4.1517 3.7189 6.1992 5.6074 2.9886 2.7579 5.9318 5.5734 8.8496 8.4219 1.5572 1.5196 3.15 3.0047 4.6836 4.5469 0.03443 0.03462 0.06714 0.07083 0.10156 0.10546 1.9531 1.9663 3.8072 4.0104 5.7188 6.0098h-95.152c-10.408-32.006-22.463-63.376-36.139-93.941zm-547.34 158.94h164.99c-16.452 65.782-26.068 133.72-28.621 202.5h-204.42c0.15754-2.0995 0.28092-4.2042 0.46875-6.2988 0.27691-3.0782 0.59649-6.1444 0.9375-9.2051 0.3782-3.4008 0.80596-6.7922 1.2637-10.178 0.42204-3.1177 0.84009-6.2362 1.3281-9.334 0.53863-3.4224 1.1656-6.8245 1.7852-10.229 0.54337-2.9821 1.0365-5.9816 1.6406-8.9434 6.62e-4 -0.00324 0.001292-0.00652 0.001953-0.00977 1.1664-5.7246 2.4576-11.417 3.8516-17.08 0.83708-3.3951 1.7826-6.7486 2.6992-10.113 0.72871-2.6803 1.447-5.363 2.2266-8.0274 1.0721-3.6559 2.2077-7.2855 3.373-10.902 0.70483-2.1933 1.4305-4.3794 2.1699-6.5606 1.3398-3.9413 2.7029-7.8723 4.1523-11.764 0.46021-1.2393 0.95626-2.4643 1.4277-3.6992 10.808-28.22 24.509-55.049 40.732-80.156zm232.91 0h301.25c17.584 65.517 27.956 133.53 30.652 202.5h-362.65c2.7398-68.981 13.127-137 30.75-202.5zm369.15 0h127.83c2.39 3.7126 4.8013 7.4123 7.0742 11.191 0.2106 0.34974 0.43491 0.69065 0.64454 1.041 3.3634 5.6282 6.5746 11.339 9.6758 17.105 0.55745 1.0353 1.0934 2.0829 1.6426 3.123 2.6937 5.1083 5.2951 10.263 7.7813 15.471 0.36774 0.76942 0.74607 1.5329 1.1094 2.3047 5.7398 12.208 10.903 24.678 15.482 37.367 0.24438 0.67683 0.48548 1.3549 0.72656 2.0332 4.5743 12.876 8.5637 25.968 11.91 39.248 0.0764 0.30349 0.14299 0.61033 0.21875 0.91406 1.5254 6.109 2.8979 12.261 4.1582 18.441 0.20066 0.98611 0.40568 1.9707 0.59961 2.959 2.5533 12.983 4.5136 26.112 5.875 39.348 0.15121 1.4771 0.26997 2.9624 0.40625 4.4434 0.23086 2.4961 0.37077 5.0066 0.5586 7.5098h-167.15c-2.5119-68.767-12.139-136.69-28.551-202.5zm-670.11 267.5h204.12c2.1873 73.954 12.671 146.98 30.91 217.5h-156.68c-27.957-39.493-49.449-83.737-63.008-131.17-0.001079-0.00377-8.74e-4 -0.00794-0.001953-0.01172-4.3885-15.355-7.9067-31.055-10.596-47.018-0.18718-1.1164-0.40547-2.2255-0.58398-3.3438-0.66241-4.1297-1.2188-8.292-1.7637-12.457-0.30063-2.3119-0.59772-4.6243-0.86133-6.9434-0.42716-3.7314-0.80888-7.4752-1.1406-11.232-0.15468-1.7699-0.26342-3.5469-0.39648-5.3203zm269.87 0h363.28c-2.4427 74.176-13.808 147.32-33.445 217.5h-296.64c-19.536-70.181-30.843-143.32-33.189-217.5zm429.02 0h166.91c-0.10757 1.4336-0.19862 2.8695-0.32032 4.3008-0.27244 3.1664-0.53254 6.3351-0.87304 9.4844-0.27527 2.5686-0.63248 5.1215-0.95313 7.6816-0.87289 6.9168-1.8894 13.794-3.0859 20.617-0.26535 1.5217-0.51547 3.0466-0.79688 4.5645-0.81106 4.351-1.6825 8.6833-2.623 12.992-0.19316 0.88942-0.40286 1.7742-0.60156 2.6621-12.695 56.446-36.594 108.99-69.307 155.2h-119.43c18.321-70.513 28.804-143.56 31.078-217.5zm-564.16 282.5h119.49c10.843 32.353 23.366 64.042 37.562 94.883-59.53-20.389-112.79-53.095-157.05-94.883zm189.01 0h255.06c-13.536 37.165-29.525 73.229-47.836 107.92-31.911 7.3991-64.771 11.338-98.061 11.338-19.344 0-38.533-1.4009-57.494-3.9336-19.905-36.961-37.229-75.493-51.668-115.32zm324.67 0h82.668c-32.739 30.916-70.452 56.921-112.13 76.648 10.926-25.048 20.709-50.644 29.459-76.648z" stroke-linecap="square" stroke-linejoin="round" style="paint-order:fill markers stroke" id="path1" inkscape:label="path" />
  <metadata id="metadata1">
    <rdf:RDF>
      <cc:Work rdf:about="">
        <dc:creator>
          <cc:Agent>
            <dc:title>Roman Drechsel</dc:title>
          </cc:Agent>
        </dc:creator>
        <dc:rights>
          <cc:Agent>
            <dc:title>Roman Drechsel</dc:title>
          </cc:Agent>
        </dc:rights>
        <dc:publisher>
          <cc:Agent>
            <dc:title>Roman Drechsel</dc:title>
          </cc:Agent>
        </dc:publisher>
        <dc:source>https://roman-drechsel.de</dc:source>
        <dc:date>2024-08-19</dc:date>
        <cc:license rdf:resource="http://creativecommons.org/licenses/by-nc-sa/4.0/" />
      </cc:Work>
      <cc:License rdf:about="http://creativecommons.org/licenses/by-nc-sa/4.0/">
        <cc:permits rdf:resource="http://creativecommons.org/ns#Reproduction" />
        <cc:permits rdf:resource="http://creativecommons.org/ns#Distribution" />
        <cc:requires rdf:resource="http://creativecommons.org/ns#Notice" />
        <cc:requires rdf:resource="http://creativecommons.org/ns#Attribution" />
        <cc:prohibits rdf:resource="http://creativecommons.org/ns#CommercialUse" />
        <cc:permits rdf:resource="http://creativecommons.org/ns#DerivativeWorks" />
        <cc:requires rdf:resource="http://creativecommons.org/ns#ShareAlike" />
      </cc:License>
    </rdf:RDF>
  </metadata>
</svg>
