<?xml version="1.0" encoding="UTF-8"?>
<svg version="1.1" viewBox="0 0 1000 1000" xmlns="http://www.w3.org/2000/svg" xmlns:cc="http://creativecommons.org/ns#" xmlns:dc="http://purl.org/dc/elements/1.1/" xmlns:rdf="http://www.w3.org/1999/02/22-rdf-syntax-ns#">
  <metadata>
    <rdf:RDF>
      <cc:Work rdf:about="">
        <dc:date>2024-04-12</dc:date>
        <dc:creator>
          <cc:Agent>
            <dc:title>Roman Drechsel</dc:title>
          </cc:Agent>
        </dc:creator>
        <dc:rights>
          <cc:Agent>
            <dc:title>Roman Drechsel</dc:title>
          </cc:Agent>
        </dc:rights>
        <dc:publisher>
          <cc:Agent>
            <dc:title>Roman Drechsel</dc:title>
          </cc:Agent>
        </dc:publisher>
        <cc:license rdf:resource="http://creativecommons.org/licenses/by-nc-sa/4.0/"/>
      </cc:Work>
      <cc:License rdf:about="http://creativecommons.org/licenses/by-nc-sa/4.0/">
        <cc:permits rdf:resource="http://creativecommons.org/ns#Reproduction"/>
        <cc:permits rdf:resource="http://creativecommons.org/ns#Distribution"/>
        <cc:requires rdf:resource="http://creativecommons.org/ns#Notice"/>
        <cc:requires rdf:resource="http://creativecommons.org/ns#Attribution"/>
        <cc:prohibits rdf:resource="http://creativecommons.org/ns#CommercialUse"/>
        <cc:permits rdf:resource="http://creativecommons.org/ns#DerivativeWorks"/>
        <cc:requires rdf:resource="http://creativecommons.org/ns#ShareAlike"/>
      </cc:License>
    </rdf:RDF>
  </metadata>
  <path transform="matrix(1 0 0 1.25 -3.5086 17.392)" d="m201.01 146.09a50 40 0 0 0-50 40 50 40 0 0 0 50 40 50 40 0 0 0 50-40 50 40 0 0 0-50-40zm195 0c-22.16 0-40 14.272-40 32v16c0 17.728 17.84 32 40 32h420c22.16 0 40-14.272 40-32v-16c0-17.728-17.84-32-40-32h-420zm-195 200a50 40 0 0 0-50 40 50 40 0 0 0 50 40 50 40 0 0 0 50-40 50 40 0 0 0-50-40zm195 0c-22.16 0-40 14.272-40 32v16c0 17.728 17.84 32 40 32h420c22.16 0 40-14.272 40-32v-16c0-17.728-17.84-32-40-32h-420zm-195 200a50 40 0 0 0-50 40 50 40 0 0 0 50 40 50 40 0 0 0 50-40 50 40 0 0 0-50-40zm195 0c-22.16 0-40 14.272-40 32v16c0 17.728 17.84 32 40 32h420c22.16 0 40-14.272 40-32v-16c0-17.728-17.84-32-40-32h-420z" stroke-linecap="square" stroke-miterlimit="0" stroke-width="53.666" style="paint-order:markers fill stroke"/>
</svg>
