<?xml version="1.0" encoding="UTF-8"?>
<svg version="1.1" viewBox="0 0 1000 1000" xmlns="http://www.w3.org/2000/svg" xmlns:cc="http://creativecommons.org/ns#" xmlns:dc="http://purl.org/dc/elements/1.1/" xmlns:rdf="http://www.w3.org/1999/02/22-rdf-syntax-ns#">
 <title>Pin Icon</title>
 <path transform="rotate(45)" d="m492.51-295.19c-6.3595 6.4094-10.399 16.121-10.399 27.028 0 19.39 12.771 34.999 28.635 34.999h20.534v150.24c-35.388 33.479-66.069 68.154-88.779 101.12-24.092 34.971-40.29 64.484-39.378 98.518a35 35 0 0 0 0.06076 0.3867v4.7592c0 16.682 16.472 30.111 36.931 30.111h232v311.59c0 16.682 15.609 30.113 34.999 30.113s35-13.429 35-30.111l-0.00139-311.59h232c20.459 0 36.93-13.431 36.93-30.113v-4.7536a35 35 0 0 0 0.0621-0.39084c0.9112-34.035-15.287-63.547-39.378-98.518-22.71-32.966-53.391-67.642-88.779-101.12v-150.24h20.534c15.865 0 28.635-15.609 28.635-34.999s-12.772-35-28.636-35h-392.73c-6.9407 0-13.291 2.9878-18.237 7.9729zm108.77 62.027h211.66v165c0 11.377 5.3989 21.42 13.757 27.805a35 35 0 0 0 2.2152 2.671c35.006 32.44 65.044 66.397 85.161 95.599 5.9131 8.5835 10.574 16.683 14.376 24.062h-442.68c3.8014-7.3795 8.4624-15.479 14.376-24.062 20.117-29.202 50.154-63.159 85.161-95.599a35 35 0 0 0 2.2125-2.6682c8.3597-6.3846 13.76-16.43 13.76-27.808v-165z" stroke-width="70"/>
 <metadata>
  <rdf:RDF>
   <cc:Work rdf:about="">
    <dc:date>2024-07-18</dc:date>
    <dc:creator>
     <cc:Agent>
      <dc:title>Roman Drechsel</dc:title>
     </cc:Agent>
    </dc:creator>
    <dc:rights>
     <cc:Agent>
      <dc:title>Roman Drechsel</dc:title>
     </cc:Agent>
    </dc:rights>
    <dc:publisher>
     <cc:Agent>
      <dc:title>Roman Drechsel</dc:title>
     </cc:Agent>
    </dc:publisher>
    <cc:license rdf:resource="http://creativecommons.org/licenses/by-nc-sa/4.0/"/>
    <dc:title>Pin Icon</dc:title>
   </cc:Work>
   <cc:License rdf:about="http://creativecommons.org/licenses/by-nc-sa/4.0/">
    <cc:permits rdf:resource="http://creativecommons.org/ns#Reproduction"/>
    <cc:permits rdf:resource="http://creativecommons.org/ns#Distribution"/>
    <cc:requires rdf:resource="http://creativecommons.org/ns#Notice"/>
    <cc:requires rdf:resource="http://creativecommons.org/ns#Attribution"/>
    <cc:prohibits rdf:resource="http://creativecommons.org/ns#CommercialUse"/>
    <cc:permits rdf:resource="http://creativecommons.org/ns#DerivativeWorks"/>
    <cc:requires rdf:resource="http://creativecommons.org/ns#ShareAlike"/>
   </cc:License>
  </rdf:RDF>
 </metadata>
</svg>
