<?xml version="1.0" encoding="UTF-8"?>
<svg version="1.1" viewBox="0 0 1000 1000" xmlns="http://www.w3.org/2000/svg" xmlns:cc="http://creativecommons.org/ns#" xmlns:dc="http://purl.org/dc/elements/1.1/" xmlns:rdf="http://www.w3.org/1999/02/22-rdf-syntax-ns#">
 <title>Pin Icon Solid</title>
 <path transform="translate(-207.11 404.74)" d="m510.74-303.16c-15.865 0-28.637 15.61-28.637 35s12.772 35 28.637 35h20.533v150.24c-35.388 33.479-66.069 68.153-88.779 101.12-24.092 34.971-40.29 64.483-39.379 98.518a35 35 0 0 0 0.0625 0.39258v4.7539c0 16.682 16.47 30.113 36.93 30.113h232v311.59c0 16.682 15.61 30.113 35 30.113s35-13.431 35-30.113v-311.59h232c20.459 0 36.93-13.431 36.93-30.113v-4.7539a35 35 0 0 0 0.0625-0.39258c0.9111-34.035-15.287-63.546-39.379-98.518-22.71-32.966-53.391-67.64-88.779-101.12v-150.24h20.533c15.865 0 28.637-15.61 28.637-35s-12.772-35-28.637-35h-392.73zm300.87 70h1.3242v0.50977c-0.42254-0.20441-0.8579-0.38552-1.3242-0.50977zm-325.82 315.09c0.01569 0.01462 0.02697 0.034596 0.04297 0.048828h-0.06836c0.00856-0.016618 0.01682-0.032202 0.02539-0.048828z" stroke-width="70"/>
 <metadata>
  <rdf:RDF>
   <cc:Work rdf:about="">
    <dc:date>2024-07-18</dc:date>
    <dc:creator>
     <cc:Agent>
      <dc:title>Roman Drechsel</dc:title>
     </cc:Agent>
    </dc:creator>
    <dc:rights>
     <cc:Agent>
      <dc:title>Roman Drechsel</dc:title>
     </cc:Agent>
    </dc:rights>
    <dc:publisher>
     <cc:Agent>
      <dc:title>Roman Drechsel</dc:title>
     </cc:Agent>
    </dc:publisher>
    <dc:title>Pin Icon Solid</dc:title>
    <cc:license rdf:resource="http://creativecommons.org/licenses/by-nc-sa/4.0/"/>
   </cc:Work>
   <cc:License rdf:about="http://creativecommons.org/licenses/by-nc-sa/4.0/">
    <cc:permits rdf:resource="http://creativecommons.org/ns#Reproduction"/>
    <cc:permits rdf:resource="http://creativecommons.org/ns#Distribution"/>
    <cc:requires rdf:resource="http://creativecommons.org/ns#Notice"/>
    <cc:requires rdf:resource="http://creativecommons.org/ns#Attribution"/>
    <cc:prohibits rdf:resource="http://creativecommons.org/ns#CommercialUse"/>
    <cc:permits rdf:resource="http://creativecommons.org/ns#DerivativeWorks"/>
    <cc:requires rdf:resource="http://creativecommons.org/ns#ShareAlike"/>
   </cc:License>
  </rdf:RDF>
 </metadata>
</svg>
