<?xml version="1.0" encoding="UTF-8"?>
<!-- Created with Inkscape (http://www.inkscape.org/) -->
<svg version="1.1" viewBox="0 0 1000 1000" xmlns="http://www.w3.org/2000/svg" xmlns:cc="http://creativecommons.org/ns#" xmlns:dc="http://purl.org/dc/elements/1.1/" xmlns:rdf="http://www.w3.org/1999/02/22-rdf-syntax-ns#">
 <path transform="translate(-67.475 -30.07)" d="m567.48 30.07c-132.59 1e-6 -259.8 52.69-353.55 146.45-93.757 93.757-146.45 220.96-146.45 353.55 0 132.59 52.69 259.8 146.45 353.55 93.757 93.757 220.96 146.45 353.55 146.45s259.8-52.69 353.55-146.45c93.757-93.757 146.45-220.96 146.45-353.55s-52.688-259.8-146.45-353.55c-93.757-93.757-220.96-146.45-353.55-146.45zm0 80c111.41 0 218.21 44.24 296.99 123.02s123.01 185.58 123.01 296.98c0 111.41-44.238 218.21-123.01 296.98s-185.58 123.02-296.99 123.02c-111.41 0-218.21-44.24-296.98-123.02s-123.02-185.58-123.02-296.98 44.24-218.21 123.02-296.98 185.58-123.02 296.98-123.02zm171.03 167.91c-15.331 0.31679-29.17 9.114-34.393 23.426l-147.26 403.51-165.72-77.412c-17.209-8.0389-38.596 1.6222-47.953 21.662s-3.0354 42.645 14.174 50.684l200.15 93.498c2.4772 1.5368 5.1401 2.8731 8.0098 3.9199 0.38525 0.14053 0.77393 0.23435 1.1602 0.36328l0.35546 0.16601c8.6684 4.0493 18.392 3.5985 27.109-0.39843 9.7127-3.5802 17.66-10.876 21.332-20.938l163.41-447.78c6.9638-19.082-4.1037-40.528-24.816-48.084-5.1782-1.8889-10.456-2.7247-15.566-2.6191z" style="-inkscape-stroke:none"/>
 <metadata>
  <rdf:RDF>
   <cc:Work rdf:about="">
    <dc:date>2024-05-03</dc:date>
    <dc:creator>
     <cc:Agent>
      <dc:title>Roman Drechsel</dc:title>
     </cc:Agent>
    </dc:creator>
    <dc:rights>
     <cc:Agent>
      <dc:title>Roman Drechsel</dc:title>
     </cc:Agent>
    </dc:rights>
    <dc:publisher>
     <cc:Agent>
      <dc:title>Roman Drechsel</dc:title>
     </cc:Agent>
    </dc:publisher>
    <cc:license rdf:resource="http://creativecommons.org/licenses/by-nc-sa/4.0/"/>
   </cc:Work>
   <cc:License rdf:about="http://creativecommons.org/licenses/by-nc-sa/4.0/">
    <cc:permits rdf:resource="http://creativecommons.org/ns#Reproduction"/>
    <cc:permits rdf:resource="http://creativecommons.org/ns#Distribution"/>
    <cc:requires rdf:resource="http://creativecommons.org/ns#Notice"/>
    <cc:requires rdf:resource="http://creativecommons.org/ns#Attribution"/>
    <cc:prohibits rdf:resource="http://creativecommons.org/ns#CommercialUse"/>
    <cc:permits rdf:resource="http://creativecommons.org/ns#DerivativeWorks"/>
    <cc:requires rdf:resource="http://creativecommons.org/ns#ShareAlike"/>
   </cc:License>
  </rdf:RDF>
 </metadata>
</svg>
