<?xml version="1.0" encoding="UTF-8"?>
<svg version="1.1" viewBox="0 0 1000 1000" xmlns="http://www.w3.org/2000/svg" xmlns:cc="http://creativecommons.org/ns#" xmlns:dc="http://purl.org/dc/elements/1.1/" xmlns:rdf="http://www.w3.org/1999/02/22-rdf-syntax-ns#">
  <path transform="matrix(1.16 0 0 .75748 -12.683 234.03)" d="m118.69-182.78c-11.94 0-21.552 14.72-21.552 33.004v39.605c0 18.284 9.6121 33.004 21.552 33.004h646.55c11.94 0 21.552-14.72 21.552-33.004v-39.605c0-18.284-9.6121-33.004-21.552-33.004h-646.55zm518.55 153.75c-5.5268 0.10596-11.054 0.31715-16.519 0.31715-13.182 0-26.455-0.65606-39.627 0-0.67374 0.033557-1.3468 0.13657-2.0205 0.17534h-423.88c-7.1638 0-12.931 8.8319-12.931 19.803v1.627c-1.6739 5.2233-2.5354 11.144-2.1787 17.387l48.838 854.85c1.0406 18.215 11.454 31.597 23.348 30.003 0.45482-0.06094 0.86977-0.27938 1.315-0.38161 1.1758 0.22217 2.3457 0.47186 3.5695 0.47186h450c1.3036 0 2.5548-0.25128 3.8035-0.5028 0.243 0.04507 0.46477 0.17335 0.71053 0.20627 11.894 1.5936 22.308-11.788 23.348-30.003l48.838-854.84c0.79654-13.943-4.1595-26.498-11.852-32.362-2.3552-3.8332-5.6796-6.2502-9.4036-6.2502h-67.75c-0.366-0.045564-0.72926-0.14686-1.0961-0.17534-5.4598-0.42384-10.985-0.42311-16.512-0.31715zm-295.85 239.24c7.7126 0 15.425 4.5253 21.335 13.576l79.245 121.36 79.245-121.36c5.9098-9.0502 13.622-13.576 21.335-13.576 7.7126 0 15.426 4.5253 21.336 13.576 11.82 18.101 11.82 47.245 0 65.346l-79.245 121.36 79.245 121.36c11.82 18.101 11.82 47.245 0 65.346-11.82 18.101-30.851 18.101-42.671 0l-79.245-121.36-79.245 121.36c-11.82 18.101-30.851 18.101-42.671 0-11.82-18.101-11.82-47.245 0-65.346l79.245-121.36-79.245-121.36c-11.82-18.101-11.82-47.245 0-65.346 5.9098-9.0503 13.624-13.576 21.336-13.576z" stroke-width="86.852"/>
  <metadata>
    <rdf:RDF>
      <cc:Work rdf:about="">
        <dc:date>2024-04-11</dc:date>
        <dc:creator>
          <cc:Agent>
            <dc:title>Roman Drechsel</dc:title>
          </cc:Agent>
        </dc:creator>
        <dc:rights>
          <cc:Agent>
            <dc:title>Roman Drechsel</dc:title>
          </cc:Agent>
        </dc:rights>
        <dc:publisher>
          <cc:Agent>
            <dc:title>Roman Drechsel</dc:title>
          </cc:Agent>
        </dc:publisher>
        <cc:license rdf:resource="http://creativecommons.org/licenses/by-nc-sa/4.0/"/>
      </cc:Work>
      <cc:License rdf:about="http://creativecommons.org/licenses/by-nc-sa/4.0/">
        <cc:permits rdf:resource="http://creativecommons.org/ns#Reproduction"/>
        <cc:permits rdf:resource="http://creativecommons.org/ns#Distribution"/>
        <cc:requires rdf:resource="http://creativecommons.org/ns#Notice"/>
        <cc:requires rdf:resource="http://creativecommons.org/ns#Attribution"/>
        <cc:prohibits rdf:resource="http://creativecommons.org/ns#CommercialUse"/>
        <cc:permits rdf:resource="http://creativecommons.org/ns#DerivativeWorks"/>
        <cc:requires rdf:resource="http://creativecommons.org/ns#ShareAlike"/>
      </cc:License>
    </rdf:RDF>
  </metadata>
</svg>
