<?xml version="1.0" encoding="UTF-8"?>
<svg version="1.1" viewBox="0 0 1000 1000" xmlns="http://www.w3.org/2000/svg" xmlns:cc="http://creativecommons.org/ns#" xmlns:dc="http://purl.org/dc/elements/1.1/" xmlns:rdf="http://www.w3.org/1999/02/22-rdf-syntax-ns#">
  <path transform="matrix(1 0 0 .75748 58.037 289.06)" d="m361.96-315.61v0.21401c-38.907 3.0378-71.095 41.244-78.42 90.653h-71.58v0.45381c-65.975 3.4983-119.21 75.195-119.93 162.89h-0.068359v66.008h43.652c-0.11684 1.8606-0.18229 3.7419-0.05468 5.6674l56.65 854.85c0.01441 0.21756 0.07233 0.41297 0.08984 0.62914 0.11332 1.4138 0.34857 2.7691 0.5918 4.123 0.25154 1.4029 0.57375 2.7473 0.95312 4.0688 0.19205 0.66771 0.38614 1.324 0.60938 1.9699 0.46046 1.3355 0.98438 2.6008 1.5684 3.829 0.26437 0.55571 0.53004 1.0996 0.81836 1.6322 0.65065 1.2028 1.3564 2.3219 2.1191 3.3932 0.32931 0.463 0.65688 0.91653 1.0059 1.3537 0.8063 1.0094 1.6577 1.9255 2.5586 2.7847 0.40362 0.38555 0.80515 0.76013 1.2266 1.1139 0.92563 0.77637 1.8861 1.4509 2.8867 2.0628 0.47361 0.28998 0.94428 0.56864 1.4336 0.81995 1.0145 0.52074 2.0543 0.92996 3.125 1.2738 0.73196 0.23581 1.4568 0.48262 2.2129 0.63173 0.4015 0.0786 0.79226 0.18425 1.1992 0.23721 0.83688 0.11077 1.6852 0.17018 2.5449 0.17018h450c2.5177 0 4.897-0.63349 7.1855-1.5393 0.43824-0.1672 0.87038-0.33341 1.2988-0.53116 0.94198-0.44827 1.8416-0.97203 2.7266-1.56 0.68454-0.44331 1.3496-0.90643 1.998-1.4285 0.55925-0.46041 1.0909-0.95144 1.6191-1.4671 0.89178-0.8517 1.7342-1.7599 2.5332-2.759 0.22689-0.28939 0.44173-0.58647 0.66016-0.88699 0.99358-1.3396 1.8936-2.7753 2.7051-4.3292 0.01005-0.01962 0.01928-0.03964 0.02929-0.0593 2.3602-4.5403 3.9822-9.8405 4.373-15.739l56.65-854.84c0.12302-1.8563 0.05174-3.6673-0.05273-5.4637h43.082v-66.008h-0.06836c-0.72593-87.697-53.957-159.39-119.93-162.89v-0.45381h-71.58c-7.3247-49.409-39.513-87.615-78.42-90.653v-0.21401h-160zm5 66.008h150c13.754 0 25.413 9.9756 31.162 24.859h-212.32c5.7492-14.883 17.408-24.859 31.162-24.859zm-150 90.867h450v0.1186c41.258 0 74.21 42.997 74.932 97.218h-599.86c0.72184-54.221 33.674-97.218 74.932-97.218v-0.1186zm-31.586 163.35h513.73l-54.648 824.6h-404.43l-54.646-824.6zm256.59 89.032c-13.85 0-25 14.72-25 33.004v594.08c0 18.284 11.15 33.004 25 33.004s25-14.72 25-33.004v-594.08c0-18.284-11.15-33.004-25-33.004zm-154.61 0.002578c-0.84667-0.014914-1.7021 0.026745-2.5644 0.12634-13.797 1.5936-23.934 17.541-22.727 35.755l39.221 591.82c1.2071 18.215 13.287 31.597 27.084 30.003 13.797-1.5936 23.932-17.541 22.725-35.755l-39.219-591.82c-1.1317-17.076-11.819-29.906-24.52-30.129zm298.45 0c-12.7 0.22371-23.386 13.053-24.518 30.129l-39.221 591.82c-1.2071 18.215 8.9293 34.162 22.727 35.755 13.797 1.5936 25.877-11.788 27.084-30.003l39.219-591.82c1.2071-18.215-8.9273-34.162-22.725-35.755-0.86233-0.0996-1.7197-0.14126-2.5664-0.12634z" stroke-width="86.852"/>
  <metadata>
    <rdf:RDF>
      <cc:Work rdf:about="">
        <dc:date>2024-03-27</dc:date>
        <dc:creator>
          <cc:Agent>
            <dc:title>Roman Drechsel</dc:title>
          </cc:Agent>
        </dc:creator>
        <dc:rights>
          <cc:Agent>
            <dc:title>Roman Drechsel</dc:title>
          </cc:Agent>
        </dc:rights>
        <dc:publisher>
          <cc:Agent>
            <dc:title>Roman Drechsel</dc:title>
          </cc:Agent>
        </dc:publisher>
      </cc:Work>
    </rdf:RDF>
  </metadata>
</svg>
