<?xml version="1.0" encoding="UTF-8"?>
<svg version="1.1" viewBox="0 0 1000 1000" xmlns="http://www.w3.org/2000/svg" xmlns:cc="http://creativecommons.org/ns#" xmlns:dc="http://purl.org/dc/elements/1.1/" xmlns:rdf="http://www.w3.org/1999/02/22-rdf-syntax-ns#">
  <path transform="matrix(.83333 0 0 .83333 77.361 118.73)" d="m567.17 733.53a60 60 0 0 1-60 60 60 60 0 0 1-60-60 60 60 0 0 1 60-60 60 60 0 0 1 60 60zm-60-636c26.592 0 48 21.408 48 48v384c0 26.592-21.408 48-48 48s-48-21.408-48-48v-384c0-26.592 21.408-48 48-48zm-5e-5 -192c-146.44 0-286.92 58.231-390.4 161.76-103.49 103.53-161.6 243.92-161.6 390.24 0 146.32 58.11 286.71 161.6 390.24 103.49 103.53 243.96 161.76 390.4 161.76 146.44 0 286.92-58.228 390.4-161.76 103.49-103.53 161.6-243.92 161.6-390.24 0-146.32-58.11-286.71-161.6-390.24-103.49-103.53-243.96-161.76-390.4-161.76zm0 90.495c122.24 0 239.44 48.55 325.95 135.09 86.503 86.54 135.13 203.94 135.13 326.42 0 122.48-48.628 239.87-135.13 326.41-86.503 86.54-203.71 135.09-325.95 135.09-122.24 0-239.44-48.55-325.95-135.09-86.503-86.54-135.13-203.94-135.13-326.41 0-122.48 48.625-239.88 135.13-326.42 86.503-86.54 203.71-135.09 325.95-135.09z" stroke-width="90.709"/>
  <metadata>
    <rdf:RDF>
      <cc:Work rdf:about="">
        <dc:creator>
          <cc:Agent>
            <dc:title>Roman Drechsel</dc:title>
          </cc:Agent>
        </dc:creator>
        <dc:rights>
          <cc:Agent>
            <dc:title>Roman Drechsel</dc:title>
          </cc:Agent>
        </dc:rights>
        <dc:date>2024-03-23</dc:date>
        <dc:publisher>
          <cc:Agent>
            <dc:title>Roman Drechsel</dc:title>
          </cc:Agent>
        </dc:publisher>
      </cc:Work>
    </rdf:RDF>
  </metadata>
</svg>
