<?xml version="1.0" encoding="UTF-8"?>
<svg version="1.1" viewBox="0 0 1000 1000" xmlns="http://www.w3.org/2000/svg" xmlns:cc="http://creativecommons.org/ns#" xmlns:dc="http://purl.org/dc/elements/1.1/" xmlns:rdf="http://www.w3.org/1999/02/22-rdf-syntax-ns#">
  <path transform="matrix(1 0 0 .75748 58.037 289.06)" d="m361.96-295.8v0.21402c-43.59 3.4034-78.739 50.956-79.941 108.94h-0.05859v26.597h-70v0.28878c-48.714 2.567-90.477 42.395-109.31 98.368h-0.69336v2.0164c-6.4303 19.832-10 41.625-10 64.467h43.648c-0.08895 1.7108-0.16771 3.4286-0.05078 5.193l56.65 854.85c0.01441 0.21756 0.07233 0.41297 0.08984 0.62914 0.11332 1.4138 0.34857 2.7691 0.5918 4.123 0.25154 1.4029 0.57375 2.7473 0.95312 4.0688 0.19205 0.66771 0.38614 1.324 0.60938 1.9699 0.46046 1.3355 0.98438 2.6008 1.5684 3.829 0.26437 0.55571 0.53004 1.0996 0.81836 1.6322 0.65065 1.2028 1.3564 2.3219 2.1191 3.3932 0.32931 0.463 0.65688 0.91653 1.0059 1.3537 0.8063 1.0094 1.6577 1.9255 2.5586 2.7847 0.40362 0.38555 0.80515 0.76013 1.2266 1.1139 0.92563 0.77637 1.8861 1.4509 2.8867 2.0628 0.47361 0.28998 0.94428 0.56864 1.4336 0.81995 1.0145 0.52074 2.0543 0.92996 3.125 1.2738 0.73196 0.23581 1.4568 0.48262 2.2129 0.63173 0.4015 0.0786 0.79226 0.18425 1.1992 0.23721 0.83688 0.11077 1.6852 0.17018 2.5449 0.17018h450c2.5177 0 4.897-0.63349 7.1855-1.5393 0.43824-0.1672 0.87038-0.33341 1.2988-0.53116 0.94198-0.44827 1.8416-0.97203 2.7266-1.56 0.68454-0.44331 1.3496-0.90643 1.998-1.4285 0.55925-0.46041 1.0909-0.95144 1.6191-1.4671 0.89178-0.8517 1.7342-1.7599 2.5332-2.759 0.22689-0.28939 0.44173-0.58647 0.66016-0.88699 0.99358-1.3396 1.8936-2.7753 2.7051-4.3292 0.01005-0.01962 0.01928-0.03964 0.02929-0.0593 2.3602-4.5403 3.9822-9.8405 4.373-15.739l56.65-854.84c0.11234-1.6952 0.02913-3.3432-0.04883-4.9893h43.078c0-22.839-3.5707-44.631-10-64.461v-2.0215h-0.69531c-18.83-55.973-60.591-95.804-109.3-98.371v-0.2862h-70v-24.696h-0.02149c-0.46167-58.845-35.913-107.4-79.979-110.84v-0.21402h-160zm5 66.008h150c19.626 0 35 20.296 35 46.206v23.539h-220v-23.539c0-25.91 15.374-46.206 35-46.206zm-109.19 323.37c20.32 0.35794 37.42 20.882 39.23 48.204l36.605 552.36c1.9314 29.144-14.286 54.658-36.361 57.208-22.076 2.5497-41.403-18.86-43.334-48.003l-36.605-552.36c-1.9314-29.144 14.286-54.659 36.361-57.208 1.3797-0.15936 2.7488-0.22498 4.1035-0.20112zm368.37 0c1.3547-0.023856 2.7238 0.041762 4.1035 0.20112 22.076 2.5497 38.293 28.065 36.361 57.208l-36.605 552.36c-1.9314 29.144-21.258 50.553-43.334 48.003-22.076-2.5497-38.293-28.065-36.361-57.208l36.605-552.36c1.8107-27.322 18.91-47.846 39.23-48.204zm-184.19 0.072197c22.16 0 40 23.552 40 52.807v554.47c0 29.255-17.84 52.807-40 52.807s-40-23.552-40-52.807v-554.47c0-29.255 17.84-52.807 40-52.807z" stroke-width="86.852"/>
  <metadata>
    <rdf:RDF>
      <cc:Work rdf:about="">
        <dc:date>2024-04-11</dc:date>
        <dc:creator>
          <cc:Agent>
            <dc:title>Roman Drechsel</dc:title>
          </cc:Agent>
        </dc:creator>
        <dc:rights>
          <cc:Agent>
            <dc:title>Roman Drechsel</dc:title>
          </cc:Agent>
        </dc:rights>
        <dc:publisher>
          <cc:Agent>
            <dc:title>Roman Drechsel</dc:title>
          </cc:Agent>
        </dc:publisher>
        <cc:license rdf:resource="http://creativecommons.org/licenses/by-nc-sa/4.0/"/>
      </cc:Work>
      <cc:License rdf:about="http://creativecommons.org/licenses/by-nc-sa/4.0/">
        <cc:permits rdf:resource="http://creativecommons.org/ns#Reproduction"/>
        <cc:permits rdf:resource="http://creativecommons.org/ns#Distribution"/>
        <cc:requires rdf:resource="http://creativecommons.org/ns#Notice"/>
        <cc:requires rdf:resource="http://creativecommons.org/ns#Attribution"/>
        <cc:prohibits rdf:resource="http://creativecommons.org/ns#CommercialUse"/>
        <cc:permits rdf:resource="http://creativecommons.org/ns#DerivativeWorks"/>
        <cc:requires rdf:resource="http://creativecommons.org/ns#ShareAlike"/>
      </cc:License>
    </rdf:RDF>
  </metadata>
</svg>
