<?xml version="1.0" encoding="UTF-8"?>
<svg version="1.1" viewBox="0 0 1000 1000" xmlns="http://www.w3.org/2000/svg" xmlns:cc="http://creativecommons.org/ns#" xmlns:dc="http://purl.org/dc/elements/1.1/" xmlns:rdf="http://www.w3.org/1999/02/22-rdf-syntax-ns#">
  <path transform="matrix(.91287 0 0 .88595 46.298 127.36)" d="m497 166.65a246.47 253.96 0 0 0-246.47 253.96 246.47 253.96 0 0 0 246.47 253.96 246.47 253.96 0 0 0 246.47-253.96 246.47 253.96 0 0 0-246.47-253.96zm-127.27 88.327c6.8485-0.63574 13.962 2.1735 18.839 8.1612l81.045 99.52v-77.492c0-15.633 11.073-28.218 24.829-28.218 13.756 0 24.831 12.585 24.831 28.218v135.45c0 9.6764-4.2489 18.176-10.745 23.256-0.0953 0.0855-0.16168 0.19153-0.25888 0.27557-6.0214 5.206-14.04 6.1944-21.042 3.4744-6.0393-2.0685-11.075-6.6762-14.198-12.733l-116.97-143.64c-7.8018-9.5804-6.834-23.56 2.1716-31.346 3.3771-2.9198 7.3909-4.5413 11.5-4.9228zm127.27-229.42c-211.73 0-383.4 177.71-383.4 395.05 0 217.34 171.67 395.05 383.4 395.05 211.73 0 383.4-177.71 383.4-395.05 0-217.34-171.67-395.05-383.4-395.05zm0 72.675c172.06 0 311.52 143.5 311.52 322.38 0 178.88-139.46 322.38-311.52 322.38-172.06 0-311.52-143.5-311.52-322.38 0-178.88 139.46-322.38 311.52-322.38zm0.0305-238.6v0.0697h0.0729l-0.0364 54.803 0.0286 43.419a399.68 411.83 0 0 1 273.76 111.9c-15.809-85.837-47.046-208.84-97.42-208.72l-10.156 0.0215c-1.8267 4e-3 -166.25-1.4907-166.25-1.4907zm0.0364 54.873-0.0364-54.803c-0.14398 1e-3 -164.35 1.4948-166.18 1.4907l-10.156-0.0241c-50.532-0.11506-81.796 123.62-97.555 209.48a399.68 411.83 0 0 1 273.9-112.73zm-0.0989 1069.1v-0.0697h-0.0729l0.0364-54.803-0.0286-43.419a399.68 411.83 0 0 1-273.76-111.9c15.809 85.837 47.046 208.84 97.42 208.72l10.156-0.0215c1.8267-4e-3 166.25 1.4907 166.25 1.4907zm-0.0364-54.873 0.0364 54.803c0.14398-1e-3 164.35-1.4948 166.18-1.4907l10.156 0.0241c50.532 0.11506 81.796-123.62 97.555-209.48a399.68 411.83 0 0 1-273.9 112.73z"/>
  <metadata>
    <rdf:RDF>
      <cc:Work rdf:about="">
        <dc:creator>
          <cc:Agent>
            <dc:title>Roman Drechsel</dc:title>
          </cc:Agent>
        </dc:creator>
        <dc:rights>
          <cc:Agent>
            <dc:title>Roman Drechsel</dc:title>
          </cc:Agent>
        </dc:rights>
      </cc:Work>
    </rdf:RDF>
  </metadata>
</svg>
