<?xml version="1.0" encoding="UTF-8"?>
<svg version="1.1" viewBox="0 0 1000 1000" xmlns="http://www.w3.org/2000/svg" xmlns:cc="http://creativecommons.org/ns#" xmlns:dc="http://purl.org/dc/elements/1.1/" xmlns:rdf="http://www.w3.org/1999/02/22-rdf-syntax-ns#">
  <path transform="matrix(-1.16 0 0 .75748 1012.7 234.03)" d="m110.07-193c-18.731 0-34.483 18.092-34.483 39.605v118.82c0 21.513 15.752 39.605 34.483 39.605h30.055c-0.0798 1.7311-0.14582 3.4688-0.0438 5.2549l48.838 854.85c1.0406 18.215 11.454 31.597 23.348 30.003 0.45482-0.0609 0.86977-0.27938 1.315-0.38161 1.1758 0.22217 2.3457 0.47186 3.5695 0.47186h450c1.3036 0 2.5548-0.25128 3.8035-0.5028 0.243 0.0451 0.46477 0.17335 0.71053 0.20627 11.894 1.5936 22.308-11.788 23.348-30.003l48.838-854.84c0.098-1.7162 0.0279-3.3854-0.0421-5.0512h30.053c18.731 0 34.483-18.092 34.483-39.605v-118.82c0-21.513-15.752-39.605-34.483-39.605zm8.6207 49.506h646.55v99.013h-646.55zm64.359 148.52h517.82l-47.085 824.19h-423.65zm158.34 205.18c-7.7126 0-15.426 4.5253-21.336 13.576-11.82 18.101-11.82 47.245 0 65.346l79.245 121.36-79.245 121.36c-11.82 18.101-11.82 47.245 0 65.346 11.82 18.101 30.851 18.101 42.671 0l79.245-121.36 79.245 121.36c11.82 18.101 30.851 18.101 42.671 0 11.82-18.101 11.82-47.245 0-65.346l-79.245-121.36 79.245-121.36c11.82-18.101 11.82-47.245 0-65.346-11.82-18.101-30.851-18.101-42.671 0l-79.245 121.36-79.245-121.36c-5.9098-9.0503-13.622-13.576-21.335-13.576z" stroke-width="86.852"/>
  <metadata>
    <rdf:RDF>
      <cc:Work rdf:about="">
        <dc:date>2024-04-11</dc:date>
        <dc:creator>
          <cc:Agent>
            <dc:title>Roman Drechsel</dc:title>
          </cc:Agent>
        </dc:creator>
        <dc:rights>
          <cc:Agent>
            <dc:title>Roman Drechsel</dc:title>
          </cc:Agent>
        </dc:rights>
        <dc:publisher>
          <cc:Agent>
            <dc:title>Roman Drechsel</dc:title>
          </cc:Agent>
        </dc:publisher>
        <cc:license rdf:resource="http://creativecommons.org/licenses/by-nc-sa/4.0/"/>
      </cc:Work>
      <cc:License rdf:about="http://creativecommons.org/licenses/by-nc-sa/4.0/">
        <cc:permits rdf:resource="http://creativecommons.org/ns#Reproduction"/>
        <cc:permits rdf:resource="http://creativecommons.org/ns#Distribution"/>
        <cc:requires rdf:resource="http://creativecommons.org/ns#Notice"/>
        <cc:requires rdf:resource="http://creativecommons.org/ns#Attribution"/>
        <cc:prohibits rdf:resource="http://creativecommons.org/ns#CommercialUse"/>
        <cc:permits rdf:resource="http://creativecommons.org/ns#DerivativeWorks"/>
        <cc:requires rdf:resource="http://creativecommons.org/ns#ShareAlike"/>
      </cc:License>
    </rdf:RDF>
  </metadata>
</svg>
