<?xml version="1.0" encoding="UTF-8"?>
<svg version="1.1" viewBox="0 0 1000 1000" xmlns="http://www.w3.org/2000/svg" xmlns:cc="http://creativecommons.org/ns#" xmlns:dc="http://purl.org/dc/elements/1.1/" xmlns:rdf="http://www.w3.org/1999/02/22-rdf-syntax-ns#">
 <title>Geo-Location</title>
 <path transform="translate(0 -20.568)" d="m500 45.014c-154.28 0-280 125.72-280 280 0 47.744 12.063 92.737 33.262 132.13l0.23242-0.10937c0.05559 0.09819 0.08602 0.20086 0.14258 0.29883l218.75 378.89c0.10531 0.18241 0.24196 0.32793 0.34961 0.50782 1.3042 2.6321 3.0868 4.9376 5.2871 6.8281 6.1183 6.382 13.851 10.03 21.275 9.9707 0.13705 0.00608 0.27475 0.00228 0.41211 0.00585 0.13674-0.00356 0.27371 2e-4 0.41015-0.00585 7.4241 0.05943 15.159-3.5885 21.277-9.9707 2.2003-1.8905 3.9829-4.196 5.2871-6.8281 0.10765-0.17989 0.24429-0.32541 0.34961-0.50782l218.75-378.89c2.3258-4.0285 3.7686-8.2406 4.4961-12.393l2.1797 1.0176c17.64-36.639 27.539-77.666 27.539-120.95 0-154.28-125.72-280-280-280zm0 60c121.86 0 220 98.143 220 220 0 34.333-7.7962 66.78-21.713 95.684l0.34375 0.16015c-1.7562 1.9542-3.4116 4.0603-4.8066 6.4766l-194.11 336.21-194.11-336.21c-0.47456-0.82196-1.0558-1.517-1.5762-2.2871-15.292-29.997-24.021-63.938-24.021-100.03 0-121.86 98.143-220 220-220zm0 110.12c-65.403 0-118.08 55.257-118.08 121.97s52.673 121.97 118.08 121.97 118.08-55.257 118.08-121.97-52.673-121.97-118.08-121.97zm0 40c42.928 0 78.076 36.05 78.076 81.969 0 45.919-35.149 81.969-78.076 81.969s-78.076-36.05-78.076-81.969c0-45.919 35.149-81.969 78.076-81.969zm-158.72 434.7c-36.441 6.6256-69.982 15.389-99.217 26.248-34.003 12.63-62.575 27.774-84.357 46.902-21.783 19.128-37.709 44.283-37.709 73.145s15.926 54.016 37.709 73.145c21.783 19.128 50.354 34.273 84.357 46.902 68.006 25.259 158.27 39.953 257.93 39.953s189.93-14.694 257.93-39.953c34.003-12.63 62.575-27.774 84.357-46.902 21.783-19.128 37.709-44.283 37.709-73.145s-15.926-54.016-37.709-73.145c-21.783-19.129-50.354-34.273-84.357-46.902-27.421-10.185-58.597-18.551-92.412-25.029l-31.957 55.35c39.418 6.3097 74.625 15.21 103.48 25.926 29.334 10.896 52.019 23.763 65.658 35.74 13.639 11.977 17.301 21.024 17.301 28.061 0 7.0365-3.6616 16.083-17.301 28.061-13.639 11.977-36.324 24.845-65.658 35.74-58.668 21.791-143.4 36.199-237.04 36.199s-178.37-14.408-237.04-36.199c-29.334-10.896-52.019-23.763-65.658-35.74-13.639-11.977-17.301-21.024-17.301-28.061 0-7.0365 3.6616-16.083 17.301-28.061 13.639-11.977 36.324-24.845 65.658-35.74 30.512-11.333 68.197-20.592 110.4-26.939l-32.074-55.555z" style="-inkscape-stroke:none"/>
 <metadata>
  <rdf:RDF>
   <cc:Work rdf:about="">
    <dc:date>2024-06-07</dc:date>
    <dc:creator>
     <cc:Agent>
      <dc:title>Roman Drechsel</dc:title>
     </cc:Agent>
    </dc:creator>
    <dc:rights>
     <cc:Agent>
      <dc:title>Roman Drechsel</dc:title>
     </cc:Agent>
    </dc:rights>
    <dc:publisher>
     <cc:Agent>
      <dc:title>Roman Drechsel</dc:title>
     </cc:Agent>
    </dc:publisher>
    <cc:license rdf:resource="http://creativecommons.org/licenses/by-nc-sa/4.0/"/>
    <dc:title>Geo-Location</dc:title>
   </cc:Work>
   <cc:License rdf:about="http://creativecommons.org/licenses/by-nc-sa/4.0/">
    <cc:permits rdf:resource="http://creativecommons.org/ns#Reproduction"/>
    <cc:permits rdf:resource="http://creativecommons.org/ns#Distribution"/>
    <cc:requires rdf:resource="http://creativecommons.org/ns#Notice"/>
    <cc:requires rdf:resource="http://creativecommons.org/ns#Attribution"/>
    <cc:prohibits rdf:resource="http://creativecommons.org/ns#CommercialUse"/>
    <cc:permits rdf:resource="http://creativecommons.org/ns#DerivativeWorks"/>
    <cc:requires rdf:resource="http://creativecommons.org/ns#ShareAlike"/>
   </cc:License>
  </rdf:RDF>
 </metadata>
</svg>
