<?xml version="1.0" encoding="UTF-8"?>
<svg version="1.1" viewBox="0 0 1000 1000" xmlns="http://www.w3.org/2000/svg" xmlns:cc="http://creativecommons.org/ns#" xmlns:dc="http://purl.org/dc/elements/1.1/" xmlns:rdf="http://www.w3.org/1999/02/22-rdf-syntax-ns#">
  <path d="m500 20c-16.945 0-32.188 7.8102-42.307 20h-62.635c-24.729 0-45.059 20.619-45.059 45.297v-6.9551h-80.816c-39.675 0-72.795 33.12-72.795 72.795v697.73c0 39.675 33.12 72.795 72.795 72.795h461.63c39.675 0 72.795-33.12 72.795-72.795v-697.73c0-39.675-33.12-72.795-72.795-72.795h-80.816v6.9551c0-24.678-20.33-45.297-45.059-45.297h-62.635c-10.118-12.19-25.362-20-42.307-20zm0 30c5.1771 0 9.9434 1.516 13.898 4.127l5.4609 12.324c1.1944 2.6954 1.8134 5.6086 1.8164 8.5566-4e-3 11.914-9.2604 21.168-21.176 21.168-11.911 0-21.163-9.2479-21.174-21.156 8e-3 -2.9448 0.62754-5.856 1.8242-8.5469l5.5039-12.377c3.945-2.5903 8.6909-4.0957 13.846-4.0957zm-104.94 27.648h46.254c1.4145 31.049 27.316 56.176 58.688 56.176s57.273-25.127 58.688-56.176h46.254c4.34 0 7.4102 2.994 7.4102 7.6484v59.406c0 4.6545-3.0701 7.6484-7.4102 7.6484h-209.88c-4.34 0-7.4102-2.994-7.4102-7.6484v-59.406c0-4.6545 3.0701-7.6484 7.4102-7.6484zm-45.059 67.055c0 24.678 20.33 45.297 45.059 45.297h209.88c24.729 0 45.059-20.619 45.059-45.297v8.8379c0 0.13261-0.01633 0.26032-0.01758 0.39257h78.039v692.13h-456.04v-692.13h78.039c-0.00125-0.13225-0.01758-0.25996-0.01758-0.39257v-8.8379zm82.768 95.32c-8.5232-0.41544-16.648 4.6908-19.727 13.15l-34.203 93.969-46.984-17.102c-10.412-3.7896-21.843 1.5413-25.633 11.953-3.7896 10.412 1.5413 21.845 11.953 25.635l65.777 23.941c10.412 3.7896 21.845-1.5413 25.635-11.953l41.043-112.76c3.7896-10.412-1.5413-21.843-11.953-25.633-1.9522-0.71055-3.9413-1.1014-5.9082-1.1973zm57.232 44.977c-13.85 0-25 11.15-25 25s11.15 25 25 25h180c13.85 0 25-11.15 25-25s-11.15-25-25-25h-180zm-57.232 130.02c-8.5232-0.41544-16.648 4.6908-19.727 13.15l-34.203 93.969-46.984-17.102c-10.412-3.7896-21.843 1.5413-25.633 11.953-3.7896 10.412 1.5413 21.845 11.953 25.635l65.777 23.941c10.412 3.7896 21.845-1.5413 25.635-11.953l41.043-112.76c3.7896-10.412-1.5413-21.843-11.953-25.633-1.9522-0.71055-3.9413-1.1014-5.9082-1.1973zm57.232 44.977c-13.85 0-25 11.15-25 25s11.15 25 25 25h180c13.85 0 25-11.15 25-25s-11.15-25-25-25h-180zm-125 160c-16.62 0-30 13.38-30 30v30c0 16.62 13.38 30 30 30h30c16.62 0 30-13.38 30-30v-30c0-16.62-13.38-30-30-30h-30zm125 20c-13.85 0-25 11.15-25 25s11.15 25 25 25h180c13.85 0 25-11.15 25-25s-11.15-25-25-25h-180z"/>
  <metadata>
    <rdf:RDF>
      <cc:Work rdf:about="">
        <dc:creator>
          <cc:Agent>
            <dc:title>Roman Drechsel</dc:title>
          </cc:Agent>
        </dc:creator>
        <dc:rights>
          <cc:Agent>
            <dc:title>Roman Drechsel</dc:title>
          </cc:Agent>
        </dc:rights>
        <dc:publisher>
          <cc:Agent>
            <dc:title>Roman Drechsel</dc:title>
          </cc:Agent>
        </dc:publisher>
        <dc:source>https://roman-drechsel.de</dc:source>
        <dc:date>2024-08-19</dc:date>
        <cc:license rdf:resource="http://creativecommons.org/licenses/by-nc-sa/4.0/"/>
      </cc:Work>
      <cc:License rdf:about="http://creativecommons.org/licenses/by-nc-sa/4.0/">
        <cc:permits rdf:resource="http://creativecommons.org/ns#Reproduction"/>
        <cc:permits rdf:resource="http://creativecommons.org/ns#Distribution"/>
        <cc:requires rdf:resource="http://creativecommons.org/ns#Notice"/>
        <cc:requires rdf:resource="http://creativecommons.org/ns#Attribution"/>
        <cc:prohibits rdf:resource="http://creativecommons.org/ns#CommercialUse"/>
        <cc:permits rdf:resource="http://creativecommons.org/ns#DerivativeWorks"/>
        <cc:requires rdf:resource="http://creativecommons.org/ns#ShareAlike"/>
      </cc:License>
    </rdf:RDF>
  </metadata>
</svg>
