<?xml version="1.0" encoding="UTF-8"?>
<svg version="1.1" viewBox="0 0 1000 1000" xmlns="http://www.w3.org/2000/svg" xmlns:cc="http://creativecommons.org/ns#" xmlns:dc="http://purl.org/dc/elements/1.1/" xmlns:rdf="http://www.w3.org/1999/02/22-rdf-syntax-ns#">
 <title>Privacy Icon</title>
 <path d="m496.98 97.156a30 30 0 0 0-21.877 6.9707c-14.598 12.325-39.442 27.571-61.535 37.785-24.289 11.229-47.805 18.316-75.107 22.082-25.159 3.4705-56.361 3.9997-80.934 0.80469-12.869-1.6733-24.949-4.4319-35.895-8.7812-11.116-4.4174-21.047-10.293-31.412-19.334a30 30 0 0 0-42.328 2.8887 30 30 0 0 0-6.9453 21.857c-0.27045 0.67717-0.44531 1.368-0.44531 2.0781v255c0 0.2474 0.0542 0.48866 0.08789 0.73242 0.57461 242.1 146.71 451.21 350.23 483.34a30 30 0 0 0 9.1797-0.36523 30 30 0 0 0 9.1797 0.36523c203.52-32.137 349.66-241.25 350.23-483.34 0.03369-0.24376 0.08789-0.48502 0.08789-0.73242v-255c0-0.44634-0.05952-0.88632-0.16797-1.3203a30 30 0 0 0-7.2226-22.615 30 30 0 0 0-42.328-2.8887c-10.365 9.0414-20.296 14.917-31.412 19.334-10.945 4.3493-23.025 7.1079-35.895 8.7812-24.572 3.195-55.775 2.6658-80.934-0.80469-27.302-3.7662-50.819-10.853-75.107-22.082-22.093-10.214-46.937-25.46-61.535-37.785a30 30 0 0 0-21.877-6.9707 30 30 0 0 0-3.0215 0.87109 30 30 0 0 0-3.0215-0.87109zm3.0215 63.568c18.483 13.493 40.099 25.867 61.256 35.648 29.111 13.458 59.133 22.513 92.086 27.059 30.632 4.2255 65.444 4.9512 96.869 0.86524 16.078-2.0905 32.759-5.6881 49.289-12.135v200.95a30 30 0 0 0-0.01758 0.0918c1.8734 220.5-130.36 403.26-299.48 430.08-169.12-26.819-301.36-209.58-299.48-430.08a30 30 0 0 0-0.01758-0.30859v-200.74c16.53 6.4467 33.211 10.044 49.289 12.135 31.425 4.086 66.238 3.3602 96.869-0.86524 32.953-4.5457 62.975-13.6 92.086-27.059 21.157-9.7812 42.773-22.156 61.256-35.648zm0.5 146.56c-52.085 0-92.693 45.927-92.693 100v20.854h-32.598c-16.274 0-30 13.726-30 30v166.73c0 16.274 13.726 30 30 30h250.58c16.274 0 30-13.726 30-30v-166.73c0-16.274-13.726-30-30-30h-32.596v-20.854c0-54.073-40.608-100-92.693-100zm0 40c28.459 0 52.693 25.434 52.693 60v19.439h-105.39v-19.439c0-34.566 24.234-60 52.693-60zm-115.29 120.85h230.58v146.73h-230.58v-146.73zm115.29 34.812c-13.85 0-25 11.15-25 25v30c0 13.85 11.15 25 25 25s25-11.15 25-25v-30c0-13.85-11.15-25-25-25z" style="-inkscape-stroke:none"/>
 <metadata>
  <rdf:RDF>
   <cc:Work rdf:about="">
    <dc:date>2024-05-25</dc:date>
    <dc:creator>
     <cc:Agent>
      <dc:title>Roman Drechsel</dc:title>
     </cc:Agent>
    </dc:creator>
    <dc:rights>
     <cc:Agent>
      <dc:title>Roman Drechsel</dc:title>
     </cc:Agent>
    </dc:rights>
    <dc:publisher>
     <cc:Agent>
      <dc:title>Roman Drechsel</dc:title>
     </cc:Agent>
    </dc:publisher>
    <cc:license rdf:resource="http://creativecommons.org/licenses/by-nc-sa/4.0/"/>
    <dc:source>https://roman-drechsel.de</dc:source>
    <dc:title>Privacy Icon</dc:title>
   </cc:Work>
   <cc:License rdf:about="http://creativecommons.org/licenses/by-nc-sa/4.0/">
    <cc:permits rdf:resource="http://creativecommons.org/ns#Reproduction"/>
    <cc:permits rdf:resource="http://creativecommons.org/ns#Distribution"/>
    <cc:requires rdf:resource="http://creativecommons.org/ns#Notice"/>
    <cc:requires rdf:resource="http://creativecommons.org/ns#Attribution"/>
    <cc:prohibits rdf:resource="http://creativecommons.org/ns#CommercialUse"/>
    <cc:permits rdf:resource="http://creativecommons.org/ns#DerivativeWorks"/>
    <cc:requires rdf:resource="http://creativecommons.org/ns#ShareAlike"/>
   </cc:License>
  </rdf:RDF>
 </metadata>
</svg>
