<?xml version="1.0" encoding="UTF-8"?>
<svg version="1.1" viewBox="0 0 1000 1000" xmlns="http://www.w3.org/2000/svg" xmlns:cc="http://creativecommons.org/ns#" xmlns:dc="http://purl.org/dc/elements/1.1/" xmlns:rdf="http://www.w3.org/1999/02/22-rdf-syntax-ns#">
  <path transform="translate(300.26 402.39)" d="m399.74 297.61a80 80 0 0 1-80 80 80 80 0 0 1-80-80 80 80 0 0 1 80-80 80 80 0 0 1 80 80zm-415-35h430c19.39 0 35 15.61 35 35s-15.61 35-35 35h-430c-19.39 0-35-15.61-35-35s15.61-35 35-35zm290-165a80 80 0 0 1-80 80 80 80 0 0 1-80-80 80 80 0 0 1 80-80 80 80 0 0 1 80 80zm-290-35h430c19.39 0 35 15.61 35 35s-15.61 35-35 35h-430c-19.39 0-35-15.61-35-35s15.61-35 35-35zm175-170a80 80 0 0 1-80 80 80 80 0 0 1-80-80 80 80 0 0 1 80-80 80 80 0 0 1 80 80zm-175-35h430c19.39 0 35 15.61 35 35 0 19.39-15.61 35-35 35h-430c-19.39 0-35-15.61-35-35 0-19.39 15.61-35 35-35zm215-220c-122.04 0-239.1 48.526-325.34 134.8-86.238 86.274-134.66 203.27-134.66 325.2 0 121.93 48.425 238.93 134.66 325.2 86.238 86.274 203.3 134.8 325.34 134.8 122.04 0 239.1-48.524 325.34-134.8 86.238-86.274 134.66-203.27 134.66-325.2 0-121.93-48.425-238.93-134.66-325.2-86.238-86.274-203.3-134.8-325.34-134.8zm0 75.412c101.87 0 199.54 40.458 271.62 112.57 72.086 72.116 112.61 169.95 112.61 272.01 0 102.06-40.523 199.9-112.61 272.01-72.086 72.116-169.76 112.57-271.62 112.57-101.87 0-199.54-40.458-271.62-112.57-72.086-72.116-112.61-169.95-112.61-272.01 0-102.06 40.521-199.9 112.61-272.01 72.086-72.116 169.76-112.57 271.62-112.57z" stroke-width="75.591"/>
  <metadata>
    <rdf:RDF>
      <cc:Work rdf:about="">
        <dc:creator>
          <cc:Agent>
            <dc:title>Roman Drechsel</dc:title>
          </cc:Agent>
        </dc:creator>
        <dc:rights>
          <cc:Agent>
            <dc:title>Roman Drechsel</dc:title>
          </cc:Agent>
        </dc:rights>
      </cc:Work>
    </rdf:RDF>
  </metadata>
</svg>
