<?xml version="1.0" encoding="UTF-8"?>
<svg version="1.1" viewBox="0 0 1000 1000" xmlns="http://www.w3.org/2000/svg" xmlns:cc="http://creativecommons.org/ns#" xmlns:dc="http://purl.org/dc/elements/1.1/" xmlns:rdf="http://www.w3.org/1999/02/22-rdf-syntax-ns#">
  <path transform="matrix(1 0 0 .75748 58.037 289.06)" d="m361.96-315.61v0.21401c-38.907 3.0378-71.095 41.244-78.42 90.653h-71.58v0.28879c-65.992 3.4774-119.24 75.338-119.96 163.06h-0.035156v66.008h43.652c-0.11684 1.8606-0.18229 3.7419-0.05468 5.6674l56.65 854.85c0.01441 0.21756 0.07233 0.41297 0.08984 0.62914 0.11332 1.4138 0.34857 2.7691 0.5918 4.123 0.25154 1.4029 0.57375 2.7473 0.95312 4.0688 0.19205 0.66771 0.38614 1.324 0.60938 1.9699 0.46046 1.3355 0.98438 2.6008 1.5684 3.829 0.26437 0.55571 0.53004 1.0996 0.81836 1.6322 0.65063 1.2028 1.3564 2.3219 2.1191 3.3932 0.32931 0.463 0.65688 0.91653 1.0059 1.3537 0.80628 1.0094 1.6577 1.9255 2.5586 2.7847 0.40362 0.38555 0.80515 0.76013 1.2266 1.1139 0.92563 0.77637 1.8861 1.4509 2.8867 2.0628 0.47361 0.28998 0.94428 0.56864 1.4336 0.81995 1.0145 0.52074 2.0543 0.92996 3.125 1.2738 0.73196 0.23581 1.4568 0.48262 2.2129 0.63173 0.4015 0.0786 0.79226 0.18425 1.1992 0.23721 0.83688 0.11077 1.6852 0.17018 2.5449 0.17018h217v-66.008h-194.13l-54.646-824.6h513.73l-20.199 304.8h50.191l19.836-299.33c0.12302-1.8563 0.05174-3.6673-0.05273-5.4637h43.082v-66.008h-0.03516c-0.72113-87.718-53.973-159.58-119.96-163.06v-0.28621h-71.58c-7.3246-49.409-39.514-87.615-78.42-90.653v-0.21401h-160zm5 66.008h150c13.754 0 25.413 9.9756 31.162 24.859h-212.32c5.7492-14.883 17.408-24.859 31.162-24.859zm-150 90.867h450v0.1186c41.261 0 74.25 42.991 74.967 97.218h-599.93c0.717-54.227 33.706-97.218 74.967-97.218v-0.1186zm225 252.38c-13.85 0-25 14.72-25 33.004v594.08c0 14.656 7.2119 26.879 17.188 31.21v-389.72c0-26.009 14.111-47.466 32.812-51.917v-183.65c0-18.284-11.15-33.004-25-33.004zm-154.61 0.002578c-0.84667-0.014914-1.7021 0.026745-2.5644 0.12634-13.797 1.5936-23.934 17.541-22.727 35.755l39.221 591.82c1.2071 18.215 13.287 31.597 27.084 30.003 13.797-1.5936 23.932-17.541 22.725-35.755l-39.219-591.82c-1.1317-17.076-11.819-29.906-24.52-30.129zm298.45 0c-12.7 0.22371-23.386 13.053-24.518 30.129l-12.303 185.63h50.191l11.92-179.88c1.2071-18.215-8.9273-34.162-22.725-35.755-0.86233-0.0996-1.7197-0.14126-2.5664-0.12634zm-81.691 247.18c-18.555 0-37.08 21.35-37.08 53.89v491.76c0 32.54 18.525 53.89 37.08 53.89h246.45c18.555 0 37.08-21.35 37.08-53.89v-491.76c0-32.54-18.525-53.89-37.08-53.89h-246.45zm0 58.446h246.45c0.16445 0 0.17087 2.9e-4 0.29102 0.00516v482.64c-0.12015 0.00451-0.12657 0.00773-0.29102 0.00773h-246.45c-0.16445 0-0.17087-0.00286-0.29102-0.00773v-482.64c0.12015-0.00451 0.12657-0.00516 0.29102-0.00516zm27.48 75.118v49.336h186.86v-49.336h-186.86zm3.707 128.68v49.336h186.86v-49.336h-186.86zm0.92773 125v49.336h186.86v-49.336h-186.86z" stroke-width="86.852"/>
  <metadata>
    <rdf:RDF>
      <cc:Work rdf:about="">
        <dc:date>2024-04-12</dc:date>
        <dc:creator>
          <cc:Agent>
            <dc:title>Roman Drechsel</dc:title>
          </cc:Agent>
        </dc:creator>
        <dc:rights>
          <cc:Agent>
            <dc:title>Roman Drechsel</dc:title>
          </cc:Agent>
        </dc:rights>
        <dc:publisher>
          <cc:Agent>
            <dc:title>Roman Drechsel</dc:title>
          </cc:Agent>
        </dc:publisher>
        <cc:license rdf:resource="http://creativecommons.org/licenses/by-nc-sa/4.0/"/>
      </cc:Work>
      <cc:License rdf:about="http://creativecommons.org/licenses/by-nc-sa/4.0/">
        <cc:permits rdf:resource="http://creativecommons.org/ns#Reproduction"/>
        <cc:permits rdf:resource="http://creativecommons.org/ns#Distribution"/>
        <cc:requires rdf:resource="http://creativecommons.org/ns#Notice"/>
        <cc:requires rdf:resource="http://creativecommons.org/ns#Attribution"/>
        <cc:prohibits rdf:resource="http://creativecommons.org/ns#CommercialUse"/>
        <cc:permits rdf:resource="http://creativecommons.org/ns#DerivativeWorks"/>
        <cc:requires rdf:resource="http://creativecommons.org/ns#ShareAlike"/>
      </cc:License>
    </rdf:RDF>
  </metadata>
</svg>
