<?xml version="1.0" encoding="UTF-8"?>
<svg version="1.1" viewBox="0 0 1000 1000" xmlns="http://www.w3.org/2000/svg" xmlns:cc="http://creativecommons.org/ns#" xmlns:dc="http://purl.org/dc/elements/1.1/" xmlns:rdf="http://www.w3.org/1999/02/22-rdf-syntax-ns#">
  <title>Export item success</title>
  <path transform="rotate(35)" d="m409.58-286.79c-108.61 76.05-182.59 192.18-205.61 322.75-23.024 130.57 6.777 265 82.827 373.61 76.05 108.61 192.18 182.59 322.75 205.61 130.57 23.024 265-6.777 373.61-82.827 108.61-76.05 182.59-192.18 205.61-322.75 23.024-130.57-6.777-265-82.827-373.61-76.05-108.61-192.18-182.59-322.75-205.61-130.57-23.024-265 6.777-373.61 82.827zm57.358 81.915c86.917-60.86 194.4-84.686 298.89-66.261 104.49 18.425 197.34 77.574 258.2 164.49 60.86 86.917 84.686 194.4 66.261 298.89-18.425 104.49-77.574 197.34-164.49 258.2s-194.4 84.686-298.89 66.261c-104.49-18.425-197.34-77.574-258.2-164.49s-84.686-194.4-66.261-298.89c18.425-104.49 77.574-197.34 164.49-258.2zm231.13 21.008c-11.135 8.5197-17.264 20.714-15.099 32.99l69.744 395.53-249.57-4.5e-4c-24.376 0-44 20.874-44 46.801s19.626 46.799 44.002 46.799l301.1-0.00113c1.1557 0.03473 2.3235 0.03484 3.5003 1.5e-4l3.3952-1.5e-4c8.6072 0 16.621-2.6005 23.389-7.109 15.321-8.3292 24.452-22.798 21.881-37.379l-81.268-460.89c-3.4632-19.641-26.808-31.829-52.341-27.327-9.575 1.6883-18.058 5.4768-24.738 10.589z" stroke-linecap="square" stroke-linejoin="round" stroke-width="59.67" style="paint-order:fill markers stroke"/>
  <metadata>
    <rdf:RDF>
      <cc:Work rdf:about="">
        <dc:creator>
          <cc:Agent>
            <dc:title>Roman Drechsel</dc:title>
          </cc:Agent>
        </dc:creator>
        <dc:rights>
          <cc:Agent>
            <dc:title>Roman Drechsel</dc:title>
          </cc:Agent>
        </dc:rights>
        <dc:publisher>
          <cc:Agent>
            <dc:title>Roman Drechsel</dc:title>
          </cc:Agent>
        </dc:publisher>
        <dc:source>https://roman-drechsel.de</dc:source>
        <dc:date>2025-06-26</dc:date>
        <cc:license rdf:resource="http://creativecommons.org/licenses/by-nc-sa/4.0/"/>
        <dc:title>Export item success</dc:title>
      </cc:Work>
      <cc:License rdf:about="http://creativecommons.org/licenses/by-nc-sa/4.0/">
        <cc:permits rdf:resource="http://creativecommons.org/ns#Reproduction"/>
        <cc:permits rdf:resource="http://creativecommons.org/ns#Distribution"/>
        <cc:requires rdf:resource="http://creativecommons.org/ns#Notice"/>
        <cc:requires rdf:resource="http://creativecommons.org/ns#Attribution"/>
        <cc:prohibits rdf:resource="http://creativecommons.org/ns#CommercialUse"/>
        <cc:permits rdf:resource="http://creativecommons.org/ns#DerivativeWorks"/>
        <cc:requires rdf:resource="http://creativecommons.org/ns#ShareAlike"/>
      </cc:License>
    </rdf:RDF>
  </metadata>
</svg>
