<?xml version="1.0" encoding="UTF-8"?>
<svg version="1.1" viewBox="0 0 1000 1000" xmlns="http://www.w3.org/2000/svg" xmlns:cc="http://creativecommons.org/ns#" xmlns:dc="http://purl.org/dc/elements/1.1/" xmlns:rdf="http://www.w3.org/1999/02/22-rdf-syntax-ns#">
  <title>Export item disabled</title>
  <path transform="rotate(45)" d="m296.72-50.387c-9.0375 9.0375-14.613 21.537-14.613 35.387v30c0 27.7 22.3 50 50 50h310v310c0 27.7 22.3 50 50 50h30c27.7 0 50-22.3 50-50v-310h310c27.7 0 50-22.3 50-50v-30c0-27.7-22.3-50-50-50h-310v-310c0-27.7-22.3-50-50-50h-30c-27.7 0-50 22.3-50 50v310h-310c-13.85 0-26.35 5.5756-35.387 14.613z" stroke-linecap="square" stroke-linejoin="round" stroke-width="65.747" style="paint-order:fill markers stroke"/>
  <metadata>
    <rdf:RDF>
      <cc:Work rdf:about="">
        <dc:creator>
          <cc:Agent>
            <dc:title>Roman Drechsel</dc:title>
          </cc:Agent>
        </dc:creator>
        <dc:rights>
          <cc:Agent>
            <dc:title>Roman Drechsel</dc:title>
          </cc:Agent>
        </dc:rights>
        <dc:publisher>
          <cc:Agent>
            <dc:title>Roman Drechsel</dc:title>
          </cc:Agent>
        </dc:publisher>
        <dc:source>https://roman-drechsel.de</dc:source>
        <dc:date>2025-06-26</dc:date>
        <cc:license rdf:resource="http://creativecommons.org/licenses/by-nc-sa/4.0/"/>
        <dc:title>Export item disabled</dc:title>
      </cc:Work>
      <cc:License rdf:about="http://creativecommons.org/licenses/by-nc-sa/4.0/">
        <cc:permits rdf:resource="http://creativecommons.org/ns#Reproduction"/>
        <cc:permits rdf:resource="http://creativecommons.org/ns#Distribution"/>
        <cc:requires rdf:resource="http://creativecommons.org/ns#Notice"/>
        <cc:requires rdf:resource="http://creativecommons.org/ns#Attribution"/>
        <cc:prohibits rdf:resource="http://creativecommons.org/ns#CommercialUse"/>
        <cc:permits rdf:resource="http://creativecommons.org/ns#DerivativeWorks"/>
        <cc:requires rdf:resource="http://creativecommons.org/ns#ShareAlike"/>
      </cc:License>
    </rdf:RDF>
  </metadata>
</svg>
