<?xml version="1.0" encoding="UTF-8" standalone="no"?>
<svg version="1.1" viewBox="0 0 1000 1000" id="svg1" sodipodi:docname="item_running.svg" inkscape:version="1.4.2 (ebf0e940d0, 2025-05-08)" xmlns:inkscape="http://www.inkscape.org/namespaces/inkscape" xmlns:sodipodi="http://sodipodi.sourceforge.net/DTD/sodipodi-0.dtd" xmlns="http://www.w3.org/2000/svg" xmlns:svg="http://www.w3.org/2000/svg" xmlns:rdf="http://www.w3.org/1999/02/22-rdf-syntax-ns#" xmlns:cc="http://creativecommons.org/ns#" xmlns:dc="http://purl.org/dc/elements/1.1/">
  <title id="title1">Export item running</title>
  <defs id="defs1" />
  <sodipodi:namedview id="namedview1" pagecolor="#ffffff" bordercolor="#000000" borderopacity="0.25" inkscape:showpageshadow="2" inkscape:pageopacity="0.0" inkscape:pagecheckerboard="0" inkscape:deskcolor="#d1d1d1" inkscape:current-layer="svg1" />
  <path d="m500 0c-132.59 0-259.8 52.693-353.55 146.45-93.755 93.755-146.45 220.96-146.45 353.55s52.693 259.8 146.45 353.55c93.755 93.755 220.96 146.45 353.55 146.45s259.8-52.693 353.55-146.45c93.755-93.755 146.45-220.96 146.45-353.55s-52.693-259.8-146.45-353.55c-93.755-93.755-220.96-146.45-353.55-146.45zm0 100c106.11 0 207.81 42.13 282.84 117.16 75.028 75.028 117.16 176.74 117.16 282.84s-42.13 207.81-117.16 282.84c-75.028 75.028-176.74 117.16-282.84 117.16s-207.81-42.13-282.84-117.16c-75.028-75.028-117.16-176.74-117.16-282.84s42.13-207.81 117.16-282.84c75.028-75.028 176.74-117.16 282.84-117.16zm-235 335a65 65 0 0 0-65 65 65 65 0 0 0 65 65 65 65 0 0 0 65-65 65 65 0 0 0-65-65zm235 0a65 65 0 0 0-65 65 65 65 0 0 0 65 65 65 65 0 0 0 65-65 65 65 0 0 0-65-65zm235 0a65 65 0 0 0-65 65 65 65 0 0 0 65 65 65 65 0 0 0 65-65 65 65 0 0 0-65-65z" stop-color="#000000" stroke-linecap="square" stroke-linejoin="round" style="paint-order:fill markers stroke" id="path1" />
  <metadata id="metadata1">
    <rdf:RDF>
      <cc:Work rdf:about="">
        <dc:creator>
          <cc:Agent>
            <dc:title>Roman Drechsel</dc:title>
          </cc:Agent>
        </dc:creator>
        <dc:rights>
          <cc:Agent>
            <dc:title>Roman Drechsel</dc:title>
          </cc:Agent>
        </dc:rights>
        <dc:publisher>
          <cc:Agent>
            <dc:title>Roman Drechsel</dc:title>
          </cc:Agent>
        </dc:publisher>
        <dc:source>https://roman-drechsel.de</dc:source>
        <dc:date>2024-08-19</dc:date>
        <cc:license rdf:resource="http://creativecommons.org/licenses/by-nc-sa/4.0/" />
        <dc:title>Export item running</dc:title>
      </cc:Work>
      <cc:License rdf:about="http://creativecommons.org/licenses/by-nc-sa/4.0/">
        <cc:permits rdf:resource="http://creativecommons.org/ns#Reproduction" />
        <cc:permits rdf:resource="http://creativecommons.org/ns#Distribution" />
        <cc:requires rdf:resource="http://creativecommons.org/ns#Notice" />
        <cc:requires rdf:resource="http://creativecommons.org/ns#Attribution" />
        <cc:prohibits rdf:resource="http://creativecommons.org/ns#CommercialUse" />
        <cc:permits rdf:resource="http://creativecommons.org/ns#DerivativeWorks" />
        <cc:requires rdf:resource="http://creativecommons.org/ns#ShareAlike" />
      </cc:License>
    </rdf:RDF>
  </metadata>
</svg>
